G04 #@! TF.FileFunction,Soldermask,Top*
%FSLAX46Y46*%
G04 Gerber Fmt 4.6, Leading zero omitted, Abs format (unit mm)*
G04 Created by KiCad (PCBNEW 4.0.6+dfsg1-1) date Wed Jun  6 22:51:37 2018*
%MOMM*%
%LPD*%
G01*
G04 APERTURE LIST*
%ADD10C,0.100000*%
%ADD11R,0.800000X0.750000*%
%ADD12R,0.250000X0.500000*%
%ADD13R,2.200000X0.900000*%
%ADD14C,0.400000*%
%ADD15R,1.270000X0.970000*%
%ADD16R,2.600000X2.000000*%
%ADD17O,2.600000X2.000000*%
%ADD18R,1.500000X0.600000*%
%ADD19R,1.060000X0.650000*%
%ADD20R,0.900000X0.500000*%
%ADD21R,1.250000X1.000000*%
%ADD22R,1.200000X1.200000*%
%ADD23R,1.700000X1.700000*%
%ADD24O,1.700000X1.700000*%
%ADD25O,1.998980X1.998980*%
%ADD26R,1.998980X1.998980*%
%ADD27R,0.700000X1.300000*%
%ADD28R,1.300000X0.700000*%
%ADD29R,1.600000X1.500000*%
%ADD30R,2.500000X1.950000*%
%ADD31R,1.000000X1.000000*%
%ADD32O,1.000000X1.000000*%
%ADD33C,6.400000*%
%ADD34C,0.600000*%
G04 APERTURE END LIST*
D10*
D11*
X150646000Y-93980000D03*
X152146000Y-93980000D03*
D12*
X154051000Y-81094500D03*
X153551000Y-81094500D03*
X153051000Y-81094500D03*
X152551000Y-81094500D03*
X152051000Y-81094500D03*
X151551000Y-81094500D03*
X151551000Y-82994500D03*
X152051000Y-82994500D03*
X152551000Y-82994500D03*
X153051000Y-82994500D03*
X153551000Y-82994500D03*
X154051000Y-82994500D03*
D13*
X152801000Y-82044500D03*
D14*
X153551000Y-82044500D03*
X152051000Y-82044500D03*
D15*
X132080000Y-90170000D03*
X132080000Y-88900000D03*
X132080000Y-87630000D03*
D16*
X165100000Y-83820000D03*
D17*
X165100000Y-86360000D03*
X165100000Y-88900000D03*
D16*
X127000000Y-88900000D03*
D17*
X127000000Y-86360000D03*
X127000000Y-83820000D03*
D18*
X143350000Y-92710000D03*
X143350000Y-93980000D03*
X143350000Y-95250000D03*
X143350000Y-96520000D03*
X143350000Y-97790000D03*
X143350000Y-99060000D03*
X143350000Y-100330000D03*
X148750000Y-100330000D03*
X148750000Y-99060000D03*
X148750000Y-97790000D03*
X148750000Y-96520000D03*
X148750000Y-95250000D03*
X148750000Y-93980000D03*
X148750000Y-92710000D03*
D19*
X144991000Y-84770000D03*
X144991000Y-83820000D03*
X144991000Y-82870000D03*
X142791000Y-82870000D03*
X142791000Y-84770000D03*
D20*
X157734000Y-91960000D03*
X157734000Y-93460000D03*
D11*
X146824000Y-90932000D03*
X148324000Y-90932000D03*
X145276000Y-90932000D03*
X143776000Y-90932000D03*
X141466000Y-94234000D03*
X139966000Y-94234000D03*
X141454000Y-92710000D03*
X139954000Y-92710000D03*
X150646000Y-95504000D03*
X152146000Y-95504000D03*
X154571000Y-86042500D03*
X156071000Y-86042500D03*
X135902000Y-86106000D03*
X137402000Y-86106000D03*
X154571000Y-84582000D03*
X156071000Y-84582000D03*
X135902000Y-84582000D03*
X137402000Y-84582000D03*
D21*
X155829000Y-81042000D03*
X155829000Y-83042000D03*
X137160000Y-81058000D03*
X137160000Y-83058000D03*
D22*
X135890000Y-95080000D03*
X135890000Y-92880000D03*
X137922000Y-95080000D03*
X137922000Y-92880000D03*
X155956000Y-95334000D03*
X155956000Y-93134000D03*
X154178000Y-95334000D03*
X154178000Y-93134000D03*
D15*
X132080000Y-95250000D03*
X132080000Y-93980000D03*
X132080000Y-92710000D03*
X160020000Y-92202000D03*
X160020000Y-90932000D03*
X160020000Y-89662000D03*
X160020000Y-94234000D03*
X160020000Y-95504000D03*
X160020000Y-96774000D03*
D23*
X137160000Y-109220000D03*
D24*
X139700000Y-109220000D03*
X142240000Y-109220000D03*
X144780000Y-109220000D03*
X147320000Y-109220000D03*
X149860000Y-109220000D03*
X152400000Y-109220000D03*
X154940000Y-109220000D03*
D25*
X152400000Y-76200000D03*
D26*
X157480000Y-76200000D03*
D25*
X154940000Y-76200000D03*
X144780000Y-76200000D03*
D26*
X147320000Y-76200000D03*
D27*
X146878000Y-86868000D03*
X148778000Y-86868000D03*
X145222000Y-86868000D03*
X143322000Y-86868000D03*
D20*
X141478000Y-95770000D03*
X141478000Y-97270000D03*
X139700000Y-95770000D03*
X139700000Y-97270000D03*
X150622000Y-97040000D03*
X150622000Y-98540000D03*
X152400000Y-97040000D03*
X152400000Y-98540000D03*
D28*
X135890000Y-98232000D03*
X135890000Y-96332000D03*
X137922000Y-98232000D03*
X137922000Y-96332000D03*
X155956000Y-98801000D03*
X155956000Y-96901000D03*
X154178000Y-98806000D03*
X154178000Y-96906000D03*
D20*
X134112000Y-91706000D03*
X134112000Y-93206000D03*
X134112000Y-96254000D03*
X134112000Y-94754000D03*
X157734000Y-96496000D03*
X157734000Y-94996000D03*
D27*
X146878000Y-80772000D03*
X148778000Y-80772000D03*
X145222000Y-80772000D03*
X143322000Y-80772000D03*
D22*
X142364000Y-105506000D03*
X145164000Y-105506000D03*
D29*
X143764000Y-102266000D03*
D22*
X137792000Y-105506000D03*
X140592000Y-105506000D03*
D29*
X139192000Y-102266000D03*
D22*
X146936000Y-105506000D03*
X149736000Y-105506000D03*
D29*
X148336000Y-102266000D03*
D22*
X151508000Y-105506000D03*
X154308000Y-105506000D03*
D29*
X152908000Y-102266000D03*
D12*
X135362000Y-81072000D03*
X134862000Y-81072000D03*
X134362000Y-81072000D03*
X133862000Y-81072000D03*
X133362000Y-81072000D03*
X132862000Y-81072000D03*
X132862000Y-82972000D03*
X133362000Y-82972000D03*
X133862000Y-82972000D03*
X134362000Y-82972000D03*
X134862000Y-82972000D03*
X135362000Y-82972000D03*
D13*
X134112000Y-82022000D03*
D14*
X134862000Y-82022000D03*
X133362000Y-82022000D03*
D19*
X149309000Y-84770000D03*
X149309000Y-83820000D03*
X149309000Y-82870000D03*
X147109000Y-82870000D03*
X147109000Y-84770000D03*
D16*
X127000000Y-99060000D03*
D17*
X127000000Y-96520000D03*
X127000000Y-93980000D03*
D16*
X165100000Y-93980000D03*
D17*
X165100000Y-96520000D03*
X165100000Y-99060000D03*
D30*
X158623000Y-82041000D03*
X158623000Y-85091000D03*
X139954000Y-82041000D03*
X139954000Y-85091000D03*
D31*
X132080000Y-107950000D03*
D32*
X133350000Y-107950000D03*
X132080000Y-109220000D03*
X133350000Y-109220000D03*
X132080000Y-110490000D03*
X133350000Y-110490000D03*
D33*
X165100000Y-106680000D03*
D34*
X167500000Y-106680000D03*
X166797056Y-108377056D03*
X165100000Y-109080000D03*
X163402944Y-108377056D03*
X162700000Y-106680000D03*
X163402944Y-104982944D03*
X165100000Y-104280000D03*
X166797056Y-104982944D03*
D33*
X127000000Y-106680000D03*
D34*
X129400000Y-106680000D03*
X128697056Y-108377056D03*
X127000000Y-109080000D03*
X125302944Y-108377056D03*
X124600000Y-106680000D03*
X125302944Y-104982944D03*
X127000000Y-104280000D03*
X128697056Y-104982944D03*
D33*
X127000000Y-76200000D03*
D34*
X129400000Y-76200000D03*
X128697056Y-77897056D03*
X127000000Y-78600000D03*
X125302944Y-77897056D03*
X124600000Y-76200000D03*
X125302944Y-74502944D03*
X127000000Y-73800000D03*
X128697056Y-74502944D03*
D33*
X165100000Y-76200000D03*
D34*
X167500000Y-76200000D03*
X166797056Y-77897056D03*
X165100000Y-78600000D03*
X163402944Y-77897056D03*
X162700000Y-76200000D03*
X163402944Y-74502944D03*
X165100000Y-73800000D03*
X166797056Y-74502944D03*
D31*
X158750000Y-107950000D03*
D32*
X160020000Y-107950000D03*
X158750000Y-109220000D03*
X160020000Y-109220000D03*
X158750000Y-110490000D03*
X160020000Y-110490000D03*
D25*
X134620000Y-76200000D03*
D26*
X139700000Y-76200000D03*
D25*
X137160000Y-76200000D03*
M02*
