G04 #@! TF.FileFunction,Soldermask,Bot*
%FSLAX46Y46*%
G04 Gerber Fmt 4.6, Leading zero omitted, Abs format (unit mm)*
G04 Created by KiCad (PCBNEW 4.0.6+dfsg1-1) date Wed Jun  6 22:51:37 2018*
%MOMM*%
%LPD*%
G01*
G04 APERTURE LIST*
%ADD10C,0.100000*%
%ADD11R,2.200000X0.900000*%
%ADD12C,0.400000*%
%ADD13R,2.600000X2.000000*%
%ADD14O,2.600000X2.000000*%
%ADD15R,0.750000X0.800000*%
%ADD16R,1.700000X1.700000*%
%ADD17O,1.700000X1.700000*%
%ADD18O,1.998980X1.998980*%
%ADD19R,1.998980X1.998980*%
%ADD20R,0.500000X0.900000*%
%ADD21R,1.000000X1.000000*%
%ADD22O,1.000000X1.000000*%
%ADD23C,6.400000*%
%ADD24C,0.600000*%
G04 APERTURE END LIST*
D10*
D11*
X152801000Y-82044500D03*
D12*
X153551000Y-82044500D03*
X152051000Y-82044500D03*
D13*
X165100000Y-83820000D03*
D14*
X165100000Y-86360000D03*
X165100000Y-88900000D03*
D13*
X127000000Y-88900000D03*
D14*
X127000000Y-86360000D03*
X127000000Y-83820000D03*
D15*
X160020000Y-104660000D03*
X160020000Y-106160000D03*
D10*
G36*
X141794338Y-95353508D02*
X141264008Y-95883838D01*
X140698322Y-95318152D01*
X141228652Y-94787822D01*
X141794338Y-95353508D01*
X141794338Y-95353508D01*
G37*
G36*
X140733678Y-94292848D02*
X140203348Y-94823178D01*
X139637662Y-94257492D01*
X140167992Y-93727162D01*
X140733678Y-94292848D01*
X140733678Y-94292848D01*
G37*
G36*
X142810338Y-94337508D02*
X142280008Y-94867838D01*
X141714322Y-94302152D01*
X142244652Y-93771822D01*
X142810338Y-94337508D01*
X142810338Y-94337508D01*
G37*
G36*
X141749678Y-93276848D02*
X141219348Y-93807178D01*
X140653662Y-93241492D01*
X141183992Y-92711162D01*
X141749678Y-93276848D01*
X141749678Y-93276848D01*
G37*
G36*
X150537332Y-85535662D02*
X151067662Y-85005332D01*
X151633348Y-85571018D01*
X151103018Y-86101348D01*
X150537332Y-85535662D01*
X150537332Y-85535662D01*
G37*
G36*
X151597992Y-86596322D02*
X152128322Y-86065992D01*
X152694008Y-86631678D01*
X152163678Y-87162008D01*
X151597992Y-86596322D01*
X151597992Y-86596322D01*
G37*
D16*
X137160000Y-109220000D03*
D17*
X139700000Y-109220000D03*
X142240000Y-109220000D03*
X144780000Y-109220000D03*
X147320000Y-109220000D03*
X149860000Y-109220000D03*
X152400000Y-109220000D03*
X154940000Y-109220000D03*
D18*
X152400000Y-76200000D03*
D19*
X157480000Y-76200000D03*
D18*
X154940000Y-76200000D03*
X144780000Y-76200000D03*
D19*
X147320000Y-76200000D03*
D10*
G36*
X161489805Y-102750909D02*
X160853409Y-103387305D01*
X160499855Y-103033751D01*
X161136251Y-102397355D01*
X161489805Y-102750909D01*
X161489805Y-102750909D01*
G37*
G36*
X160429145Y-101690249D02*
X159792749Y-102326645D01*
X159439195Y-101973091D01*
X160075591Y-101336695D01*
X160429145Y-101690249D01*
X160429145Y-101690249D01*
G37*
D20*
X133909500Y-87630000D03*
X132409500Y-87630000D03*
D10*
G36*
X140852305Y-92082909D02*
X140215909Y-92719305D01*
X139862355Y-92365751D01*
X140498751Y-91729355D01*
X140852305Y-92082909D01*
X140852305Y-92082909D01*
G37*
G36*
X139791645Y-91022249D02*
X139155249Y-91658645D01*
X138801695Y-91305091D01*
X139438091Y-90668695D01*
X139791645Y-91022249D01*
X139791645Y-91022249D01*
G37*
G36*
X144653464Y-94645243D02*
X144264555Y-94256334D01*
X145395926Y-93124963D01*
X145784835Y-93513872D01*
X144653464Y-94645243D01*
X144653464Y-94645243D01*
G37*
G36*
X144087779Y-94079557D02*
X143698870Y-93690648D01*
X144830241Y-92559277D01*
X145219150Y-92948186D01*
X144087779Y-94079557D01*
X144087779Y-94079557D01*
G37*
G36*
X143522093Y-93513872D02*
X143133184Y-93124963D01*
X144264555Y-91993592D01*
X144653464Y-92382501D01*
X143522093Y-93513872D01*
X143522093Y-93513872D01*
G37*
G36*
X142956408Y-92948187D02*
X142567499Y-92559278D01*
X143698870Y-91427907D01*
X144087779Y-91816816D01*
X142956408Y-92948187D01*
X142956408Y-92948187D01*
G37*
G36*
X142390722Y-92382501D02*
X142001813Y-91993592D01*
X143133184Y-90862221D01*
X143522093Y-91251130D01*
X142390722Y-92382501D01*
X142390722Y-92382501D01*
G37*
G36*
X141825037Y-91816816D02*
X141436128Y-91427907D01*
X142567499Y-90296536D01*
X142956408Y-90685445D01*
X141825037Y-91816816D01*
X141825037Y-91816816D01*
G37*
G36*
X141259352Y-91251130D02*
X140870443Y-90862221D01*
X142001814Y-89730850D01*
X142390723Y-90119759D01*
X141259352Y-91251130D01*
X141259352Y-91251130D01*
G37*
G36*
X140693666Y-90685445D02*
X140304757Y-90296536D01*
X141436128Y-89165165D01*
X141825037Y-89554074D01*
X140693666Y-90685445D01*
X140693666Y-90685445D01*
G37*
G36*
X140304757Y-87503464D02*
X140693666Y-87114555D01*
X141825037Y-88245926D01*
X141436128Y-88634835D01*
X140304757Y-87503464D01*
X140304757Y-87503464D01*
G37*
G36*
X140870443Y-86937779D02*
X141259352Y-86548870D01*
X142390723Y-87680241D01*
X142001814Y-88069150D01*
X140870443Y-86937779D01*
X140870443Y-86937779D01*
G37*
G36*
X141436128Y-86372093D02*
X141825037Y-85983184D01*
X142956408Y-87114555D01*
X142567499Y-87503464D01*
X141436128Y-86372093D01*
X141436128Y-86372093D01*
G37*
G36*
X142001813Y-85806408D02*
X142390722Y-85417499D01*
X143522093Y-86548870D01*
X143133184Y-86937779D01*
X142001813Y-85806408D01*
X142001813Y-85806408D01*
G37*
G36*
X142567499Y-85240722D02*
X142956408Y-84851813D01*
X144087779Y-85983184D01*
X143698870Y-86372093D01*
X142567499Y-85240722D01*
X142567499Y-85240722D01*
G37*
G36*
X143133184Y-84675037D02*
X143522093Y-84286128D01*
X144653464Y-85417499D01*
X144264555Y-85806408D01*
X143133184Y-84675037D01*
X143133184Y-84675037D01*
G37*
G36*
X143698870Y-84109352D02*
X144087779Y-83720443D01*
X145219150Y-84851814D01*
X144830241Y-85240723D01*
X143698870Y-84109352D01*
X143698870Y-84109352D01*
G37*
G36*
X144264555Y-83543666D02*
X144653464Y-83154757D01*
X145784835Y-84286128D01*
X145395926Y-84675037D01*
X144264555Y-83543666D01*
X144264555Y-83543666D01*
G37*
G36*
X146704074Y-84675037D02*
X146315165Y-84286128D01*
X147446536Y-83154757D01*
X147835445Y-83543666D01*
X146704074Y-84675037D01*
X146704074Y-84675037D01*
G37*
G36*
X147269759Y-85240723D02*
X146880850Y-84851814D01*
X148012221Y-83720443D01*
X148401130Y-84109352D01*
X147269759Y-85240723D01*
X147269759Y-85240723D01*
G37*
G36*
X147835445Y-85806408D02*
X147446536Y-85417499D01*
X148577907Y-84286128D01*
X148966816Y-84675037D01*
X147835445Y-85806408D01*
X147835445Y-85806408D01*
G37*
G36*
X148401130Y-86372093D02*
X148012221Y-85983184D01*
X149143592Y-84851813D01*
X149532501Y-85240722D01*
X148401130Y-86372093D01*
X148401130Y-86372093D01*
G37*
G36*
X148966816Y-86937779D02*
X148577907Y-86548870D01*
X149709278Y-85417499D01*
X150098187Y-85806408D01*
X148966816Y-86937779D01*
X148966816Y-86937779D01*
G37*
G36*
X149532501Y-87503464D02*
X149143592Y-87114555D01*
X150274963Y-85983184D01*
X150663872Y-86372093D01*
X149532501Y-87503464D01*
X149532501Y-87503464D01*
G37*
G36*
X150098186Y-88069150D02*
X149709277Y-87680241D01*
X150840648Y-86548870D01*
X151229557Y-86937779D01*
X150098186Y-88069150D01*
X150098186Y-88069150D01*
G37*
G36*
X150663872Y-88634835D02*
X150274963Y-88245926D01*
X151406334Y-87114555D01*
X151795243Y-87503464D01*
X150663872Y-88634835D01*
X150663872Y-88634835D01*
G37*
G36*
X150274963Y-89554074D02*
X150663872Y-89165165D01*
X151795243Y-90296536D01*
X151406334Y-90685445D01*
X150274963Y-89554074D01*
X150274963Y-89554074D01*
G37*
G36*
X149709277Y-90119759D02*
X150098186Y-89730850D01*
X151229557Y-90862221D01*
X150840648Y-91251130D01*
X149709277Y-90119759D01*
X149709277Y-90119759D01*
G37*
G36*
X149143592Y-90685445D02*
X149532501Y-90296536D01*
X150663872Y-91427907D01*
X150274963Y-91816816D01*
X149143592Y-90685445D01*
X149143592Y-90685445D01*
G37*
G36*
X148577907Y-91251130D02*
X148966816Y-90862221D01*
X150098187Y-91993592D01*
X149709278Y-92382501D01*
X148577907Y-91251130D01*
X148577907Y-91251130D01*
G37*
G36*
X148012221Y-91816816D02*
X148401130Y-91427907D01*
X149532501Y-92559278D01*
X149143592Y-92948187D01*
X148012221Y-91816816D01*
X148012221Y-91816816D01*
G37*
G36*
X147446536Y-92382501D02*
X147835445Y-91993592D01*
X148966816Y-93124963D01*
X148577907Y-93513872D01*
X147446536Y-92382501D01*
X147446536Y-92382501D01*
G37*
G36*
X146880850Y-92948186D02*
X147269759Y-92559277D01*
X148401130Y-93690648D01*
X148012221Y-94079557D01*
X146880850Y-92948186D01*
X146880850Y-92948186D01*
G37*
G36*
X146315165Y-93513872D02*
X146704074Y-93124963D01*
X147835445Y-94256334D01*
X147446536Y-94645243D01*
X146315165Y-93513872D01*
X146315165Y-93513872D01*
G37*
D11*
X134112000Y-82022000D03*
D12*
X134862000Y-82022000D03*
X133362000Y-82022000D03*
D10*
G36*
X137080683Y-92823975D02*
X138353475Y-91551183D01*
X138636317Y-91834025D01*
X137363525Y-93106817D01*
X137080683Y-92823975D01*
X137080683Y-92823975D01*
G37*
G36*
X137752434Y-93495726D02*
X139025226Y-92222934D01*
X139308068Y-92505776D01*
X138035276Y-93778568D01*
X137752434Y-93495726D01*
X137752434Y-93495726D01*
G37*
G36*
X138424185Y-94167477D02*
X139696977Y-92894685D01*
X139979819Y-93177527D01*
X138707027Y-94450319D01*
X138424185Y-94167477D01*
X138424185Y-94167477D01*
G37*
D13*
X127000000Y-99060000D03*
D14*
X127000000Y-96520000D03*
X127000000Y-93980000D03*
D13*
X165100000Y-93980000D03*
D14*
X165100000Y-96520000D03*
X165100000Y-99060000D03*
D21*
X132080000Y-107950000D03*
D22*
X133350000Y-107950000D03*
X132080000Y-109220000D03*
X133350000Y-109220000D03*
X132080000Y-110490000D03*
X133350000Y-110490000D03*
D23*
X165100000Y-106680000D03*
D24*
X167500000Y-106680000D03*
X166797056Y-108377056D03*
X165100000Y-109080000D03*
X163402944Y-108377056D03*
X162700000Y-106680000D03*
X163402944Y-104982944D03*
X165100000Y-104280000D03*
X166797056Y-104982944D03*
D23*
X127000000Y-106680000D03*
D24*
X129400000Y-106680000D03*
X128697056Y-108377056D03*
X127000000Y-109080000D03*
X125302944Y-108377056D03*
X124600000Y-106680000D03*
X125302944Y-104982944D03*
X127000000Y-104280000D03*
X128697056Y-104982944D03*
D23*
X127000000Y-76200000D03*
D24*
X129400000Y-76200000D03*
X128697056Y-77897056D03*
X127000000Y-78600000D03*
X125302944Y-77897056D03*
X124600000Y-76200000D03*
X125302944Y-74502944D03*
X127000000Y-73800000D03*
X128697056Y-74502944D03*
D23*
X165100000Y-76200000D03*
D24*
X167500000Y-76200000D03*
X166797056Y-77897056D03*
X165100000Y-78600000D03*
X163402944Y-77897056D03*
X162700000Y-76200000D03*
X163402944Y-74502944D03*
X165100000Y-73800000D03*
X166797056Y-74502944D03*
D21*
X158750000Y-107950000D03*
D22*
X160020000Y-107950000D03*
X158750000Y-109220000D03*
X160020000Y-109220000D03*
X158750000Y-110490000D03*
X160020000Y-110490000D03*
D18*
X134620000Y-76200000D03*
D19*
X139700000Y-76200000D03*
D18*
X137160000Y-76200000D03*
M02*
