M48
;DRILL file {KiCad 4.0.6+dfsg1-1} date Wed Jun  6 22:53:14 2018
;FORMAT={-:-/ absolute / metric / decimal}
FMAT,2
METRIC,TZ
T1C0.300
T2C0.400
T3C0.500
T4C0.650
T5C1.000
T6C1.097
T7C1.200
T8C3.200
%
G90
G05
M71
T1
X133.362Y-82.022
X134.112Y-82.022
X134.862Y-82.022
X152.051Y-82.044
X152.801Y-82.044
X153.551Y-82.044
T2
X123.444Y-79.692
X123.825Y-102.425
X124.396Y-83.693
X124.587Y-87.694
X129.413Y-97.79
X129.921Y-110.363
X130.302Y-81.597
X130.937Y-97.79
X131.064Y-80.899
X131.064Y-84.264
X131.127Y-73.343
X131.127Y-105.283
X131.508Y-86.614
X131.762Y-83.629
X132.08Y-90.17
X132.398Y-79.375
X132.461Y-84.582
X133.096Y-97.028
X133.096Y-99.885
X133.116Y-83.883
X133.35Y-101.346
X133.731Y-85.207
X133.858Y-97.79
X134.112Y-93.98
X134.366Y-83.883
X135.89Y-88.265
X135.89Y-90.424
X136.081Y-82.042
X136.398Y-104.648
X137.033Y-87.312
X137.033Y-90.424
X137.096Y-99.631
X137.096Y-102.489
X138.303Y-87.312
X138.43Y-90.424
X139.192Y-105.537
X139.446Y-87.312
X139.446Y-94.996
X139.51Y-99.631
X140.97Y-107.251
X141.668Y-77.343
X141.986Y-81.788
X143.827Y-105.474
X145.034Y-88.265
X145.034Y-89.065
X146.05Y-86.868
X146.875Y-95.948
X146.939Y-89.725
X147.828Y-87.376
X147.828Y-89.725
X148.336Y-106.807
X148.844Y-73.406
X150.177Y-79.248
X150.495Y-84.645
X151.765Y-84.709
X151.828Y-88.9
X152.781Y-85.979
X152.781Y-92.519
X152.971Y-105.474
X153.225Y-78.676
X153.225Y-87.503
X153.825Y-83.846
X155.448Y-102.298
X156.083Y-102.87
X156.528Y-89.535
X156.718Y-103.505
X157.168Y-100.584
X157.353Y-97.536
X158.242Y-98.298
X158.242Y-100.52
X159.004Y-101.219
X160.02Y-90.932
X160.02Y-95.504
X160.845Y-101.981
X161.163Y-84.074
X161.29Y-73.152
X161.481Y-79.502
X161.862Y-109.982
X162.115Y-90.678
X162.369Y-87.503
X163.258Y-101.981
X165.862Y-91.504
X168.021Y-102.235
X168.719Y-79.566
X169.037Y-91.504
T3
X124.6Y-76.2
X124.6Y-106.68
X125.303Y-74.503
X125.303Y-77.897
X125.303Y-104.983
X125.303Y-108.377
X127.Y-73.8
X127.Y-78.6
X127.Y-104.28
X127.Y-109.08
X128.697Y-74.503
X128.697Y-77.897
X128.697Y-104.983
X128.697Y-108.377
X129.4Y-76.2
X129.4Y-106.68
X162.7Y-76.2
X162.7Y-106.68
X163.403Y-74.503
X163.403Y-77.897
X163.403Y-104.983
X163.403Y-108.377
X165.1Y-73.8
X165.1Y-78.6
X165.1Y-104.28
X165.1Y-109.08
X166.797Y-74.503
X166.797Y-77.897
X166.797Y-104.983
X166.797Y-108.377
X167.5Y-76.2
X167.5Y-106.68
T4
X132.08Y-107.95
X132.08Y-109.22
X132.08Y-110.49
X133.35Y-107.95
X133.35Y-109.22
X133.35Y-110.49
X158.75Y-107.95
X158.75Y-109.22
X158.75Y-110.49
X160.02Y-107.95
X160.02Y-109.22
X160.02Y-110.49
T5
X137.16Y-109.22
X139.7Y-109.22
X142.24Y-109.22
X144.78Y-109.22
X147.32Y-109.22
X149.86Y-109.22
X152.4Y-109.22
X154.94Y-109.22
T6
X134.62Y-76.2
X137.16Y-76.2
X139.7Y-76.2
X144.78Y-76.2
X147.32Y-76.2
X152.4Y-76.2
X154.94Y-76.2
X157.48Y-76.2
T7
X127.Y-83.82
X127.Y-86.36
X127.Y-88.9
X127.Y-93.98
X127.Y-96.52
X127.Y-99.06
X165.1Y-83.82
X165.1Y-86.36
X165.1Y-88.9
X165.1Y-93.98
X165.1Y-96.52
X165.1Y-99.06
T8
X127.Y-76.2
X127.Y-106.68
X165.1Y-76.2
X165.1Y-106.68
T0
M30
