G04 #@! TF.FileFunction,Legend,Top*
%FSLAX46Y46*%
G04 Gerber Fmt 4.6, Leading zero omitted, Abs format (unit mm)*
G04 Created by KiCad (PCBNEW 4.0.6+dfsg1-1) date Wed Jun  6 22:51:37 2018*
%MOMM*%
%LPD*%
G01*
G04 APERTURE LIST*
%ADD10C,0.100000*%
%ADD11C,0.200000*%
%ADD12C,0.150000*%
%ADD13C,0.120000*%
%ADD14C,0.250000*%
G04 APERTURE END LIST*
D10*
D11*
X162290476Y-81684762D02*
X162433333Y-81732381D01*
X162671429Y-81732381D01*
X162766667Y-81684762D01*
X162814286Y-81637143D01*
X162861905Y-81541905D01*
X162861905Y-81446667D01*
X162814286Y-81351429D01*
X162766667Y-81303810D01*
X162671429Y-81256190D01*
X162480952Y-81208571D01*
X162385714Y-81160952D01*
X162338095Y-81113333D01*
X162290476Y-81018095D01*
X162290476Y-80922857D01*
X162338095Y-80827619D01*
X162385714Y-80780000D01*
X162480952Y-80732381D01*
X162719048Y-80732381D01*
X162861905Y-80780000D01*
X163671429Y-81684762D02*
X163576191Y-81732381D01*
X163385714Y-81732381D01*
X163290476Y-81684762D01*
X163242857Y-81589524D01*
X163242857Y-81208571D01*
X163290476Y-81113333D01*
X163385714Y-81065714D01*
X163576191Y-81065714D01*
X163671429Y-81113333D01*
X163719048Y-81208571D01*
X163719048Y-81303810D01*
X163242857Y-81399048D01*
X164147619Y-81065714D02*
X164147619Y-81732381D01*
X164147619Y-81160952D02*
X164195238Y-81113333D01*
X164290476Y-81065714D01*
X164433334Y-81065714D01*
X164528572Y-81113333D01*
X164576191Y-81208571D01*
X164576191Y-81732381D01*
X165004762Y-81684762D02*
X165100000Y-81732381D01*
X165290476Y-81732381D01*
X165385715Y-81684762D01*
X165433334Y-81589524D01*
X165433334Y-81541905D01*
X165385715Y-81446667D01*
X165290476Y-81399048D01*
X165147619Y-81399048D01*
X165052381Y-81351429D01*
X165004762Y-81256190D01*
X165004762Y-81208571D01*
X165052381Y-81113333D01*
X165147619Y-81065714D01*
X165290476Y-81065714D01*
X165385715Y-81113333D01*
X166004762Y-81732381D02*
X165909524Y-81684762D01*
X165861905Y-81637143D01*
X165814286Y-81541905D01*
X165814286Y-81256190D01*
X165861905Y-81160952D01*
X165909524Y-81113333D01*
X166004762Y-81065714D01*
X166147620Y-81065714D01*
X166242858Y-81113333D01*
X166290477Y-81160952D01*
X166338096Y-81256190D01*
X166338096Y-81541905D01*
X166290477Y-81637143D01*
X166242858Y-81684762D01*
X166147620Y-81732381D01*
X166004762Y-81732381D01*
X166766667Y-81732381D02*
X166766667Y-81065714D01*
X166766667Y-81256190D02*
X166814286Y-81160952D01*
X166861905Y-81113333D01*
X166957143Y-81065714D01*
X167052382Y-81065714D01*
X167290477Y-80732381D02*
X167909525Y-80732381D01*
X167576191Y-81113333D01*
X167719049Y-81113333D01*
X167814287Y-81160952D01*
X167861906Y-81208571D01*
X167909525Y-81303810D01*
X167909525Y-81541905D01*
X167861906Y-81637143D01*
X167814287Y-81684762D01*
X167719049Y-81732381D01*
X167433334Y-81732381D01*
X167338096Y-81684762D01*
X167290477Y-81637143D01*
X162290476Y-102004762D02*
X162433333Y-102052381D01*
X162671429Y-102052381D01*
X162766667Y-102004762D01*
X162814286Y-101957143D01*
X162861905Y-101861905D01*
X162861905Y-101766667D01*
X162814286Y-101671429D01*
X162766667Y-101623810D01*
X162671429Y-101576190D01*
X162480952Y-101528571D01*
X162385714Y-101480952D01*
X162338095Y-101433333D01*
X162290476Y-101338095D01*
X162290476Y-101242857D01*
X162338095Y-101147619D01*
X162385714Y-101100000D01*
X162480952Y-101052381D01*
X162719048Y-101052381D01*
X162861905Y-101100000D01*
X163671429Y-102004762D02*
X163576191Y-102052381D01*
X163385714Y-102052381D01*
X163290476Y-102004762D01*
X163242857Y-101909524D01*
X163242857Y-101528571D01*
X163290476Y-101433333D01*
X163385714Y-101385714D01*
X163576191Y-101385714D01*
X163671429Y-101433333D01*
X163719048Y-101528571D01*
X163719048Y-101623810D01*
X163242857Y-101719048D01*
X164147619Y-101385714D02*
X164147619Y-102052381D01*
X164147619Y-101480952D02*
X164195238Y-101433333D01*
X164290476Y-101385714D01*
X164433334Y-101385714D01*
X164528572Y-101433333D01*
X164576191Y-101528571D01*
X164576191Y-102052381D01*
X165004762Y-102004762D02*
X165100000Y-102052381D01*
X165290476Y-102052381D01*
X165385715Y-102004762D01*
X165433334Y-101909524D01*
X165433334Y-101861905D01*
X165385715Y-101766667D01*
X165290476Y-101719048D01*
X165147619Y-101719048D01*
X165052381Y-101671429D01*
X165004762Y-101576190D01*
X165004762Y-101528571D01*
X165052381Y-101433333D01*
X165147619Y-101385714D01*
X165290476Y-101385714D01*
X165385715Y-101433333D01*
X166004762Y-102052381D02*
X165909524Y-102004762D01*
X165861905Y-101957143D01*
X165814286Y-101861905D01*
X165814286Y-101576190D01*
X165861905Y-101480952D01*
X165909524Y-101433333D01*
X166004762Y-101385714D01*
X166147620Y-101385714D01*
X166242858Y-101433333D01*
X166290477Y-101480952D01*
X166338096Y-101576190D01*
X166338096Y-101861905D01*
X166290477Y-101957143D01*
X166242858Y-102004762D01*
X166147620Y-102052381D01*
X166004762Y-102052381D01*
X166766667Y-102052381D02*
X166766667Y-101385714D01*
X166766667Y-101576190D02*
X166814286Y-101480952D01*
X166861905Y-101433333D01*
X166957143Y-101385714D01*
X167052382Y-101385714D01*
X167814287Y-101385714D02*
X167814287Y-102052381D01*
X167576191Y-101004762D02*
X167338096Y-101719048D01*
X167957144Y-101719048D01*
X124190476Y-102004762D02*
X124333333Y-102052381D01*
X124571429Y-102052381D01*
X124666667Y-102004762D01*
X124714286Y-101957143D01*
X124761905Y-101861905D01*
X124761905Y-101766667D01*
X124714286Y-101671429D01*
X124666667Y-101623810D01*
X124571429Y-101576190D01*
X124380952Y-101528571D01*
X124285714Y-101480952D01*
X124238095Y-101433333D01*
X124190476Y-101338095D01*
X124190476Y-101242857D01*
X124238095Y-101147619D01*
X124285714Y-101100000D01*
X124380952Y-101052381D01*
X124619048Y-101052381D01*
X124761905Y-101100000D01*
X125571429Y-102004762D02*
X125476191Y-102052381D01*
X125285714Y-102052381D01*
X125190476Y-102004762D01*
X125142857Y-101909524D01*
X125142857Y-101528571D01*
X125190476Y-101433333D01*
X125285714Y-101385714D01*
X125476191Y-101385714D01*
X125571429Y-101433333D01*
X125619048Y-101528571D01*
X125619048Y-101623810D01*
X125142857Y-101719048D01*
X126047619Y-101385714D02*
X126047619Y-102052381D01*
X126047619Y-101480952D02*
X126095238Y-101433333D01*
X126190476Y-101385714D01*
X126333334Y-101385714D01*
X126428572Y-101433333D01*
X126476191Y-101528571D01*
X126476191Y-102052381D01*
X126904762Y-102004762D02*
X127000000Y-102052381D01*
X127190476Y-102052381D01*
X127285715Y-102004762D01*
X127333334Y-101909524D01*
X127333334Y-101861905D01*
X127285715Y-101766667D01*
X127190476Y-101719048D01*
X127047619Y-101719048D01*
X126952381Y-101671429D01*
X126904762Y-101576190D01*
X126904762Y-101528571D01*
X126952381Y-101433333D01*
X127047619Y-101385714D01*
X127190476Y-101385714D01*
X127285715Y-101433333D01*
X127904762Y-102052381D02*
X127809524Y-102004762D01*
X127761905Y-101957143D01*
X127714286Y-101861905D01*
X127714286Y-101576190D01*
X127761905Y-101480952D01*
X127809524Y-101433333D01*
X127904762Y-101385714D01*
X128047620Y-101385714D01*
X128142858Y-101433333D01*
X128190477Y-101480952D01*
X128238096Y-101576190D01*
X128238096Y-101861905D01*
X128190477Y-101957143D01*
X128142858Y-102004762D01*
X128047620Y-102052381D01*
X127904762Y-102052381D01*
X128666667Y-102052381D02*
X128666667Y-101385714D01*
X128666667Y-101576190D02*
X128714286Y-101480952D01*
X128761905Y-101433333D01*
X128857143Y-101385714D01*
X128952382Y-101385714D01*
X129238096Y-101147619D02*
X129285715Y-101100000D01*
X129380953Y-101052381D01*
X129619049Y-101052381D01*
X129714287Y-101100000D01*
X129761906Y-101147619D01*
X129809525Y-101242857D01*
X129809525Y-101338095D01*
X129761906Y-101480952D01*
X129190477Y-102052381D01*
X129809525Y-102052381D01*
X124190476Y-81684762D02*
X124333333Y-81732381D01*
X124571429Y-81732381D01*
X124666667Y-81684762D01*
X124714286Y-81637143D01*
X124761905Y-81541905D01*
X124761905Y-81446667D01*
X124714286Y-81351429D01*
X124666667Y-81303810D01*
X124571429Y-81256190D01*
X124380952Y-81208571D01*
X124285714Y-81160952D01*
X124238095Y-81113333D01*
X124190476Y-81018095D01*
X124190476Y-80922857D01*
X124238095Y-80827619D01*
X124285714Y-80780000D01*
X124380952Y-80732381D01*
X124619048Y-80732381D01*
X124761905Y-80780000D01*
X125571429Y-81684762D02*
X125476191Y-81732381D01*
X125285714Y-81732381D01*
X125190476Y-81684762D01*
X125142857Y-81589524D01*
X125142857Y-81208571D01*
X125190476Y-81113333D01*
X125285714Y-81065714D01*
X125476191Y-81065714D01*
X125571429Y-81113333D01*
X125619048Y-81208571D01*
X125619048Y-81303810D01*
X125142857Y-81399048D01*
X126047619Y-81065714D02*
X126047619Y-81732381D01*
X126047619Y-81160952D02*
X126095238Y-81113333D01*
X126190476Y-81065714D01*
X126333334Y-81065714D01*
X126428572Y-81113333D01*
X126476191Y-81208571D01*
X126476191Y-81732381D01*
X126904762Y-81684762D02*
X127000000Y-81732381D01*
X127190476Y-81732381D01*
X127285715Y-81684762D01*
X127333334Y-81589524D01*
X127333334Y-81541905D01*
X127285715Y-81446667D01*
X127190476Y-81399048D01*
X127047619Y-81399048D01*
X126952381Y-81351429D01*
X126904762Y-81256190D01*
X126904762Y-81208571D01*
X126952381Y-81113333D01*
X127047619Y-81065714D01*
X127190476Y-81065714D01*
X127285715Y-81113333D01*
X127904762Y-81732381D02*
X127809524Y-81684762D01*
X127761905Y-81637143D01*
X127714286Y-81541905D01*
X127714286Y-81256190D01*
X127761905Y-81160952D01*
X127809524Y-81113333D01*
X127904762Y-81065714D01*
X128047620Y-81065714D01*
X128142858Y-81113333D01*
X128190477Y-81160952D01*
X128238096Y-81256190D01*
X128238096Y-81541905D01*
X128190477Y-81637143D01*
X128142858Y-81684762D01*
X128047620Y-81732381D01*
X127904762Y-81732381D01*
X128666667Y-81732381D02*
X128666667Y-81065714D01*
X128666667Y-81256190D02*
X128714286Y-81160952D01*
X128761905Y-81113333D01*
X128857143Y-81065714D01*
X128952382Y-81065714D01*
X129809525Y-81732381D02*
X129238096Y-81732381D01*
X129523810Y-81732381D02*
X129523810Y-80732381D01*
X129428572Y-80875238D01*
X129333334Y-80970476D01*
X129238096Y-81018095D01*
D12*
X158188571Y-105951786D02*
X158188571Y-106558929D01*
X158224286Y-106630357D01*
X158260000Y-106666071D01*
X158331429Y-106701786D01*
X158474286Y-106701786D01*
X158545714Y-106666071D01*
X158581429Y-106630357D01*
X158617143Y-106558929D01*
X158617143Y-105951786D01*
X158938571Y-106487500D02*
X159295714Y-106487500D01*
X158867143Y-106701786D02*
X159117143Y-105951786D01*
X159367143Y-106701786D01*
X160045714Y-106701786D02*
X159795714Y-106344643D01*
X159617142Y-106701786D02*
X159617142Y-105951786D01*
X159902857Y-105951786D01*
X159974285Y-105987500D01*
X160010000Y-106023214D01*
X160045714Y-106094643D01*
X160045714Y-106201786D01*
X160010000Y-106273214D01*
X159974285Y-106308929D01*
X159902857Y-106344643D01*
X159617142Y-106344643D01*
X160260000Y-105951786D02*
X160688571Y-105951786D01*
X160474285Y-106701786D02*
X160474285Y-105951786D01*
X131607857Y-106701786D02*
X131607857Y-105951786D01*
X132393572Y-106630357D02*
X132357858Y-106666071D01*
X132250715Y-106701786D01*
X132179286Y-106701786D01*
X132072143Y-106666071D01*
X132000715Y-106594643D01*
X131965000Y-106523214D01*
X131929286Y-106380357D01*
X131929286Y-106273214D01*
X131965000Y-106130357D01*
X132000715Y-106058929D01*
X132072143Y-105987500D01*
X132179286Y-105951786D01*
X132250715Y-105951786D01*
X132357858Y-105987500D01*
X132393572Y-106023214D01*
X132679286Y-106666071D02*
X132786429Y-106701786D01*
X132965000Y-106701786D01*
X133036429Y-106666071D01*
X133072143Y-106630357D01*
X133107858Y-106558929D01*
X133107858Y-106487500D01*
X133072143Y-106416071D01*
X133036429Y-106380357D01*
X132965000Y-106344643D01*
X132822143Y-106308929D01*
X132750715Y-106273214D01*
X132715000Y-106237500D01*
X132679286Y-106166071D01*
X132679286Y-106094643D01*
X132715000Y-106023214D01*
X132750715Y-105987500D01*
X132822143Y-105951786D01*
X133000715Y-105951786D01*
X133107858Y-105987500D01*
X133429286Y-106701786D02*
X133429286Y-105951786D01*
X133715001Y-105951786D01*
X133786429Y-105987500D01*
X133822144Y-106023214D01*
X133857858Y-106094643D01*
X133857858Y-106201786D01*
X133822144Y-106273214D01*
X133786429Y-106308929D01*
X133715001Y-106344643D01*
X133429286Y-106344643D01*
D13*
X151046000Y-93380000D02*
X151746000Y-93380000D01*
X151746000Y-94580000D02*
X151046000Y-94580000D01*
D14*
X154833000Y-80647500D02*
G75*
G03X154833000Y-80647500I-127000J0D01*
G01*
D12*
X154376000Y-83119500D02*
X154376000Y-80969500D01*
X151226000Y-83119500D02*
X151226000Y-80969500D01*
D13*
X132970000Y-90810000D02*
X132970000Y-86990000D01*
X132970000Y-86990000D02*
X131190000Y-86990000D01*
X131190000Y-86990000D02*
X131190000Y-90810000D01*
X132970000Y-90810000D02*
X131190000Y-90810000D01*
X168120000Y-82450000D02*
X162120000Y-82450000D01*
X162120000Y-82450000D02*
X162120000Y-90270000D01*
X162120000Y-90270000D02*
X168120000Y-90270000D01*
X168120000Y-90270000D02*
X168120000Y-82450000D01*
X162120000Y-83820000D02*
X163120000Y-83820000D01*
X163120000Y-83820000D02*
X163120000Y-88900000D01*
X163120000Y-88900000D02*
X162120000Y-88900000D01*
X163120000Y-83820000D02*
X163550000Y-84070000D01*
X163550000Y-84070000D02*
X163550000Y-88650000D01*
X163550000Y-88650000D02*
X163120000Y-88900000D01*
X162120000Y-84070000D02*
X163120000Y-84070000D01*
X162120000Y-88650000D02*
X163120000Y-88650000D01*
X168120000Y-83020000D02*
X167500000Y-83020000D01*
X167500000Y-83020000D02*
X167500000Y-84620000D01*
X167500000Y-84620000D02*
X168120000Y-84620000D01*
X168120000Y-85560000D02*
X167500000Y-85560000D01*
X167500000Y-85560000D02*
X167500000Y-87160000D01*
X167500000Y-87160000D02*
X168120000Y-87160000D01*
X168120000Y-88100000D02*
X167500000Y-88100000D01*
X167500000Y-88100000D02*
X167500000Y-89700000D01*
X167500000Y-89700000D02*
X168120000Y-89700000D01*
X123980000Y-90270000D02*
X129980000Y-90270000D01*
X129980000Y-90270000D02*
X129980000Y-82450000D01*
X129980000Y-82450000D02*
X123980000Y-82450000D01*
X123980000Y-82450000D02*
X123980000Y-90270000D01*
X129980000Y-88900000D02*
X128980000Y-88900000D01*
X128980000Y-88900000D02*
X128980000Y-83820000D01*
X128980000Y-83820000D02*
X129980000Y-83820000D01*
X128980000Y-88900000D02*
X128550000Y-88650000D01*
X128550000Y-88650000D02*
X128550000Y-84070000D01*
X128550000Y-84070000D02*
X128980000Y-83820000D01*
X129980000Y-88650000D02*
X128980000Y-88650000D01*
X129980000Y-84070000D02*
X128980000Y-84070000D01*
X123980000Y-89700000D02*
X124600000Y-89700000D01*
X124600000Y-89700000D02*
X124600000Y-88100000D01*
X124600000Y-88100000D02*
X123980000Y-88100000D01*
X123980000Y-87160000D02*
X124600000Y-87160000D01*
X124600000Y-87160000D02*
X124600000Y-85560000D01*
X124600000Y-85560000D02*
X123980000Y-85560000D01*
X123980000Y-84620000D02*
X124600000Y-84620000D01*
X124600000Y-84620000D02*
X124600000Y-83020000D01*
X124600000Y-83020000D02*
X123980000Y-83020000D01*
D12*
X143975000Y-92070000D02*
X143975000Y-92095000D01*
X148125000Y-92070000D02*
X148125000Y-92185000D01*
X148125000Y-100970000D02*
X148125000Y-100855000D01*
X143975000Y-100970000D02*
X143975000Y-100855000D01*
X143975000Y-92070000D02*
X148125000Y-92070000D01*
X143975000Y-100970000D02*
X148125000Y-100970000D01*
X143975000Y-92095000D02*
X142600000Y-92095000D01*
D13*
X144791000Y-82210000D02*
X142991000Y-82210000D01*
X142991000Y-85430000D02*
X145441000Y-85430000D01*
X157054000Y-93210000D02*
X157054000Y-92210000D01*
X158414000Y-92210000D02*
X158414000Y-93210000D01*
X147224000Y-90332000D02*
X147924000Y-90332000D01*
X147924000Y-91532000D02*
X147224000Y-91532000D01*
X144876000Y-91532000D02*
X144176000Y-91532000D01*
X144176000Y-90332000D02*
X144876000Y-90332000D01*
X141066000Y-94834000D02*
X140366000Y-94834000D01*
X140366000Y-93634000D02*
X141066000Y-93634000D01*
X141054000Y-93310000D02*
X140354000Y-93310000D01*
X140354000Y-92110000D02*
X141054000Y-92110000D01*
X151046000Y-94904000D02*
X151746000Y-94904000D01*
X151746000Y-96104000D02*
X151046000Y-96104000D01*
X154971000Y-85442500D02*
X155671000Y-85442500D01*
X155671000Y-86642500D02*
X154971000Y-86642500D01*
X136302000Y-85506000D02*
X137002000Y-85506000D01*
X137002000Y-86706000D02*
X136302000Y-86706000D01*
X154971000Y-83982000D02*
X155671000Y-83982000D01*
X155671000Y-85182000D02*
X154971000Y-85182000D01*
X136302000Y-83982000D02*
X137002000Y-83982000D01*
X137002000Y-85182000D02*
X136302000Y-85182000D01*
X156679000Y-82542000D02*
X156679000Y-81542000D01*
X154979000Y-81542000D02*
X154979000Y-82542000D01*
X138010000Y-82558000D02*
X138010000Y-81558000D01*
X136310000Y-81558000D02*
X136310000Y-82558000D01*
X136590000Y-92180000D02*
X135190000Y-92180000D01*
X135190000Y-92180000D02*
X135190000Y-94980000D01*
X136590000Y-92180000D02*
X136590000Y-94980000D01*
X138622000Y-92180000D02*
X137222000Y-92180000D01*
X137222000Y-92180000D02*
X137222000Y-94980000D01*
X138622000Y-92180000D02*
X138622000Y-94980000D01*
X156656000Y-92434000D02*
X155256000Y-92434000D01*
X155256000Y-92434000D02*
X155256000Y-95234000D01*
X156656000Y-92434000D02*
X156656000Y-95234000D01*
X154878000Y-92434000D02*
X153478000Y-92434000D01*
X153478000Y-92434000D02*
X153478000Y-95234000D01*
X154878000Y-92434000D02*
X154878000Y-95234000D01*
X132970000Y-95890000D02*
X132970000Y-92070000D01*
X132970000Y-92070000D02*
X131190000Y-92070000D01*
X131190000Y-92070000D02*
X131190000Y-95890000D01*
X132970000Y-95890000D02*
X131190000Y-95890000D01*
X160910000Y-92842000D02*
X160910000Y-89022000D01*
X160910000Y-89022000D02*
X159130000Y-89022000D01*
X159130000Y-89022000D02*
X159130000Y-92842000D01*
X160910000Y-92842000D02*
X159130000Y-92842000D01*
X159130000Y-93594000D02*
X159130000Y-97414000D01*
X159130000Y-97414000D02*
X160910000Y-97414000D01*
X160910000Y-97414000D02*
X160910000Y-93594000D01*
X159130000Y-93594000D02*
X160910000Y-93594000D01*
X138430000Y-110610000D02*
X156330000Y-110610000D01*
X156330000Y-110610000D02*
X156330000Y-107830000D01*
X156330000Y-107830000D02*
X138430000Y-107830000D01*
X138430000Y-107830000D02*
X138430000Y-110610000D01*
X137160000Y-110610000D02*
X135770000Y-110610000D01*
X135770000Y-110610000D02*
X135770000Y-109220000D01*
D12*
X150840440Y-79298800D02*
X159039560Y-79298800D01*
X150840440Y-78900020D02*
X159039560Y-78900020D01*
X150840440Y-73599040D02*
X159039560Y-73599040D01*
X159039560Y-73101200D02*
X150840440Y-73101200D01*
X153639520Y-73599040D02*
X153639520Y-73101200D01*
X158838900Y-73101200D02*
X158838900Y-73599040D01*
X151038560Y-73599040D02*
X151038560Y-73101200D01*
X156237940Y-73101200D02*
X156237940Y-73599040D01*
X150840440Y-73101200D02*
X150840440Y-79298800D01*
X159037020Y-79298800D02*
X159037020Y-73101200D01*
X143250920Y-73599040D02*
X148849080Y-73599040D01*
X148650960Y-73101200D02*
X148650960Y-73599040D01*
X143449040Y-73599040D02*
X143449040Y-73101200D01*
X146050000Y-73101200D02*
X146050000Y-73599040D01*
X148849080Y-78900020D02*
X143250920Y-78900020D01*
X148849080Y-73101200D02*
X143250920Y-73101200D01*
X143250920Y-73101200D02*
X143250920Y-79298800D01*
X143250920Y-79298800D02*
X148849080Y-79298800D01*
X148849080Y-79298800D02*
X148849080Y-73101200D01*
D13*
X148428000Y-87748000D02*
X147228000Y-87748000D01*
X147228000Y-85988000D02*
X148428000Y-85988000D01*
X143672000Y-85988000D02*
X144872000Y-85988000D01*
X144872000Y-87748000D02*
X143672000Y-87748000D01*
X140798000Y-97020000D02*
X140798000Y-96020000D01*
X142158000Y-96020000D02*
X142158000Y-97020000D01*
X139020000Y-97020000D02*
X139020000Y-96020000D01*
X140380000Y-96020000D02*
X140380000Y-97020000D01*
X149942000Y-98290000D02*
X149942000Y-97290000D01*
X151302000Y-97290000D02*
X151302000Y-98290000D01*
X151720000Y-98290000D02*
X151720000Y-97290000D01*
X153080000Y-97290000D02*
X153080000Y-98290000D01*
X136770000Y-96682000D02*
X136770000Y-97882000D01*
X135010000Y-97882000D02*
X135010000Y-96682000D01*
X138802000Y-96682000D02*
X138802000Y-97882000D01*
X137042000Y-97882000D02*
X137042000Y-96682000D01*
X156836000Y-97251000D02*
X156836000Y-98451000D01*
X155076000Y-98451000D02*
X155076000Y-97251000D01*
X155058000Y-97256000D02*
X155058000Y-98456000D01*
X153298000Y-98456000D02*
X153298000Y-97256000D01*
X133432000Y-92956000D02*
X133432000Y-91956000D01*
X134792000Y-91956000D02*
X134792000Y-92956000D01*
X134792000Y-95004000D02*
X134792000Y-96004000D01*
X133432000Y-96004000D02*
X133432000Y-95004000D01*
X158414000Y-95246000D02*
X158414000Y-96246000D01*
X157054000Y-96246000D02*
X157054000Y-95246000D01*
X148428000Y-81652000D02*
X147228000Y-81652000D01*
X147228000Y-79892000D02*
X148428000Y-79892000D01*
X143672000Y-79892000D02*
X144872000Y-79892000D01*
X144872000Y-81652000D02*
X143672000Y-81652000D01*
X145544000Y-102136000D02*
X145544000Y-104416000D01*
X145034000Y-102136000D02*
X145544000Y-102136000D01*
X141984000Y-102136000D02*
X142494000Y-102136000D01*
X141984000Y-104416000D02*
X141984000Y-102136000D01*
X140972000Y-102136000D02*
X140972000Y-104416000D01*
X140462000Y-102136000D02*
X140972000Y-102136000D01*
X137412000Y-102136000D02*
X137922000Y-102136000D01*
X137412000Y-104416000D02*
X137412000Y-102136000D01*
X150116000Y-102136000D02*
X150116000Y-104416000D01*
X149606000Y-102136000D02*
X150116000Y-102136000D01*
X146556000Y-102136000D02*
X147066000Y-102136000D01*
X146556000Y-104416000D02*
X146556000Y-102136000D01*
X154688000Y-102136000D02*
X154688000Y-104416000D01*
X154178000Y-102136000D02*
X154688000Y-102136000D01*
X151128000Y-102136000D02*
X151638000Y-102136000D01*
X151128000Y-104416000D02*
X151128000Y-102136000D01*
D14*
X136144000Y-80625000D02*
G75*
G03X136144000Y-80625000I-127000J0D01*
G01*
D12*
X135687000Y-83097000D02*
X135687000Y-80947000D01*
X132537000Y-83097000D02*
X132537000Y-80947000D01*
D13*
X149109000Y-82210000D02*
X147309000Y-82210000D01*
X147309000Y-85430000D02*
X149759000Y-85430000D01*
X123980000Y-100430000D02*
X129980000Y-100430000D01*
X129980000Y-100430000D02*
X129980000Y-92610000D01*
X129980000Y-92610000D02*
X123980000Y-92610000D01*
X123980000Y-92610000D02*
X123980000Y-100430000D01*
X129980000Y-99060000D02*
X128980000Y-99060000D01*
X128980000Y-99060000D02*
X128980000Y-93980000D01*
X128980000Y-93980000D02*
X129980000Y-93980000D01*
X128980000Y-99060000D02*
X128550000Y-98810000D01*
X128550000Y-98810000D02*
X128550000Y-94230000D01*
X128550000Y-94230000D02*
X128980000Y-93980000D01*
X129980000Y-98810000D02*
X128980000Y-98810000D01*
X129980000Y-94230000D02*
X128980000Y-94230000D01*
X123980000Y-99860000D02*
X124600000Y-99860000D01*
X124600000Y-99860000D02*
X124600000Y-98260000D01*
X124600000Y-98260000D02*
X123980000Y-98260000D01*
X123980000Y-97320000D02*
X124600000Y-97320000D01*
X124600000Y-97320000D02*
X124600000Y-95720000D01*
X124600000Y-95720000D02*
X123980000Y-95720000D01*
X123980000Y-94780000D02*
X124600000Y-94780000D01*
X124600000Y-94780000D02*
X124600000Y-93180000D01*
X124600000Y-93180000D02*
X123980000Y-93180000D01*
X168120000Y-92610000D02*
X162120000Y-92610000D01*
X162120000Y-92610000D02*
X162120000Y-100430000D01*
X162120000Y-100430000D02*
X168120000Y-100430000D01*
X168120000Y-100430000D02*
X168120000Y-92610000D01*
X162120000Y-93980000D02*
X163120000Y-93980000D01*
X163120000Y-93980000D02*
X163120000Y-99060000D01*
X163120000Y-99060000D02*
X162120000Y-99060000D01*
X163120000Y-93980000D02*
X163550000Y-94230000D01*
X163550000Y-94230000D02*
X163550000Y-98810000D01*
X163550000Y-98810000D02*
X163120000Y-99060000D01*
X162120000Y-94230000D02*
X163120000Y-94230000D01*
X162120000Y-98810000D02*
X163120000Y-98810000D01*
X168120000Y-93180000D02*
X167500000Y-93180000D01*
X167500000Y-93180000D02*
X167500000Y-94780000D01*
X167500000Y-94780000D02*
X168120000Y-94780000D01*
X168120000Y-95720000D02*
X167500000Y-95720000D01*
X167500000Y-95720000D02*
X167500000Y-97320000D01*
X167500000Y-97320000D02*
X168120000Y-97320000D01*
X168120000Y-98260000D02*
X167500000Y-98260000D01*
X167500000Y-98260000D02*
X167500000Y-99860000D01*
X167500000Y-99860000D02*
X168120000Y-99860000D01*
X160273000Y-80766000D02*
X160273000Y-85316000D01*
X156973000Y-80766000D02*
X156973000Y-85316000D01*
X160273000Y-80766000D02*
X156973000Y-80766000D01*
X141604000Y-80766000D02*
X141604000Y-85316000D01*
X138304000Y-80766000D02*
X138304000Y-85316000D01*
X141604000Y-80766000D02*
X138304000Y-80766000D01*
X130890000Y-108585000D02*
X130890000Y-111245000D01*
X130890000Y-111245000D02*
X134540000Y-111245000D01*
X134540000Y-111245000D02*
X134540000Y-107195000D01*
X134540000Y-107195000D02*
X132715000Y-107195000D01*
X132715000Y-107195000D02*
X132715000Y-108585000D01*
X132715000Y-108585000D02*
X130890000Y-108585000D01*
X130890000Y-107950000D02*
X130890000Y-107195000D01*
X130890000Y-107195000D02*
X132080000Y-107195000D01*
X157560000Y-108585000D02*
X157560000Y-111245000D01*
X157560000Y-111245000D02*
X161210000Y-111245000D01*
X161210000Y-111245000D02*
X161210000Y-107195000D01*
X161210000Y-107195000D02*
X159385000Y-107195000D01*
X159385000Y-107195000D02*
X159385000Y-108585000D01*
X159385000Y-108585000D02*
X157560000Y-108585000D01*
X157560000Y-107950000D02*
X157560000Y-107195000D01*
X157560000Y-107195000D02*
X158750000Y-107195000D01*
D12*
X133060440Y-79298800D02*
X141259560Y-79298800D01*
X133060440Y-78900020D02*
X141259560Y-78900020D01*
X133060440Y-73599040D02*
X141259560Y-73599040D01*
X141259560Y-73101200D02*
X133060440Y-73101200D01*
X135859520Y-73599040D02*
X135859520Y-73101200D01*
X141058900Y-73101200D02*
X141058900Y-73599040D01*
X133258560Y-73599040D02*
X133258560Y-73101200D01*
X138457940Y-73101200D02*
X138457940Y-73599040D01*
X133060440Y-73101200D02*
X133060440Y-79298800D01*
X141257020Y-79298800D02*
X141257020Y-73101200D01*
D10*
X150934000Y-91944000D02*
X150900666Y-91977333D01*
X150800666Y-92010667D01*
X150734000Y-92010667D01*
X150634000Y-91977333D01*
X150567333Y-91910667D01*
X150534000Y-91844000D01*
X150500666Y-91710667D01*
X150500666Y-91610667D01*
X150534000Y-91477333D01*
X150567333Y-91410667D01*
X150634000Y-91344000D01*
X150734000Y-91310667D01*
X150800666Y-91310667D01*
X150900666Y-91344000D01*
X150934000Y-91377333D01*
X151600666Y-92010667D02*
X151200666Y-92010667D01*
X151400666Y-92010667D02*
X151400666Y-91310667D01*
X151334000Y-91410667D01*
X151267333Y-91477333D01*
X151200666Y-91510667D01*
X152034000Y-91310667D02*
X152100667Y-91310667D01*
X152167333Y-91344000D01*
X152200667Y-91377333D01*
X152234000Y-91444000D01*
X152267333Y-91577333D01*
X152267333Y-91744000D01*
X152234000Y-91877333D01*
X152200667Y-91944000D01*
X152167333Y-91977333D01*
X152100667Y-92010667D01*
X152034000Y-92010667D01*
X151967333Y-91977333D01*
X151934000Y-91944000D01*
X151900667Y-91877333D01*
X151867333Y-91744000D01*
X151867333Y-91577333D01*
X151900667Y-91444000D01*
X151934000Y-91377333D01*
X151967333Y-91344000D01*
X152034000Y-91310667D01*
X152267667Y-79880667D02*
X152267667Y-80447333D01*
X152301000Y-80514000D01*
X152334333Y-80547333D01*
X152401000Y-80580667D01*
X152534333Y-80580667D01*
X152601000Y-80547333D01*
X152634333Y-80514000D01*
X152667667Y-80447333D01*
X152667667Y-79880667D01*
X152934333Y-79880667D02*
X153367666Y-79880667D01*
X153134333Y-80147333D01*
X153234333Y-80147333D01*
X153301000Y-80180667D01*
X153334333Y-80214000D01*
X153367666Y-80280667D01*
X153367666Y-80447333D01*
X153334333Y-80514000D01*
X153301000Y-80547333D01*
X153234333Y-80580667D01*
X153034333Y-80580667D01*
X152967666Y-80547333D01*
X152934333Y-80514000D01*
X131338667Y-85976667D02*
X131338667Y-86476667D01*
X131305333Y-86576667D01*
X131238667Y-86643333D01*
X131138667Y-86676667D01*
X131072000Y-86676667D01*
X131772000Y-86276667D02*
X131705333Y-86243333D01*
X131672000Y-86210000D01*
X131638666Y-86143333D01*
X131638666Y-86110000D01*
X131672000Y-86043333D01*
X131705333Y-86010000D01*
X131772000Y-85976667D01*
X131905333Y-85976667D01*
X131972000Y-86010000D01*
X132005333Y-86043333D01*
X132038666Y-86110000D01*
X132038666Y-86143333D01*
X132005333Y-86210000D01*
X131972000Y-86243333D01*
X131905333Y-86276667D01*
X131772000Y-86276667D01*
X131705333Y-86310000D01*
X131672000Y-86343333D01*
X131638666Y-86410000D01*
X131638666Y-86543333D01*
X131672000Y-86610000D01*
X131705333Y-86643333D01*
X131772000Y-86676667D01*
X131905333Y-86676667D01*
X131972000Y-86643333D01*
X132005333Y-86610000D01*
X132038666Y-86543333D01*
X132038666Y-86410000D01*
X132005333Y-86343333D01*
X131972000Y-86310000D01*
X131905333Y-86276667D01*
X164866667Y-90548667D02*
X164866667Y-91048667D01*
X164833333Y-91148667D01*
X164766667Y-91215333D01*
X164666667Y-91248667D01*
X164600000Y-91248667D01*
X165500000Y-90782000D02*
X165500000Y-91248667D01*
X165333333Y-90515333D02*
X165166666Y-91015333D01*
X165600000Y-91015333D01*
X126766667Y-90548667D02*
X126766667Y-91048667D01*
X126733333Y-91148667D01*
X126666667Y-91215333D01*
X126566667Y-91248667D01*
X126500000Y-91248667D01*
X127066666Y-90615333D02*
X127100000Y-90582000D01*
X127166666Y-90548667D01*
X127333333Y-90548667D01*
X127400000Y-90582000D01*
X127433333Y-90615333D01*
X127466666Y-90682000D01*
X127466666Y-90748667D01*
X127433333Y-90848667D01*
X127033333Y-91248667D01*
X127466666Y-91248667D01*
D12*
X145288095Y-89114381D02*
X145288095Y-89923905D01*
X145335714Y-90019143D01*
X145383333Y-90066762D01*
X145478571Y-90114381D01*
X145669048Y-90114381D01*
X145764286Y-90066762D01*
X145811905Y-90019143D01*
X145859524Y-89923905D01*
X145859524Y-89114381D01*
X146288095Y-89209619D02*
X146335714Y-89162000D01*
X146430952Y-89114381D01*
X146669048Y-89114381D01*
X146764286Y-89162000D01*
X146811905Y-89209619D01*
X146859524Y-89304857D01*
X146859524Y-89400095D01*
X146811905Y-89542952D01*
X146240476Y-90114381D01*
X146859524Y-90114381D01*
D10*
X141706667Y-85722667D02*
X141706667Y-86289333D01*
X141740000Y-86356000D01*
X141773333Y-86389333D01*
X141840000Y-86422667D01*
X141973333Y-86422667D01*
X142040000Y-86389333D01*
X142073333Y-86356000D01*
X142106667Y-86289333D01*
X142106667Y-85722667D01*
X142740000Y-85722667D02*
X142606666Y-85722667D01*
X142540000Y-85756000D01*
X142506666Y-85789333D01*
X142440000Y-85889333D01*
X142406666Y-86022667D01*
X142406666Y-86289333D01*
X142440000Y-86356000D01*
X142473333Y-86389333D01*
X142540000Y-86422667D01*
X142673333Y-86422667D01*
X142740000Y-86389333D01*
X142773333Y-86356000D01*
X142806666Y-86289333D01*
X142806666Y-86122667D01*
X142773333Y-86056000D01*
X142740000Y-86022667D01*
X142673333Y-85989333D01*
X142540000Y-85989333D01*
X142473333Y-86022667D01*
X142440000Y-86056000D01*
X142406666Y-86122667D01*
X157284000Y-91502667D02*
X157050666Y-91169333D01*
X156884000Y-91502667D02*
X156884000Y-90802667D01*
X157150666Y-90802667D01*
X157217333Y-90836000D01*
X157250666Y-90869333D01*
X157284000Y-90936000D01*
X157284000Y-91036000D01*
X157250666Y-91102667D01*
X157217333Y-91136000D01*
X157150666Y-91169333D01*
X156884000Y-91169333D01*
X157550666Y-90869333D02*
X157584000Y-90836000D01*
X157650666Y-90802667D01*
X157817333Y-90802667D01*
X157884000Y-90836000D01*
X157917333Y-90869333D01*
X157950666Y-90936000D01*
X157950666Y-91002667D01*
X157917333Y-91102667D01*
X157517333Y-91502667D01*
X157950666Y-91502667D01*
X158184000Y-90802667D02*
X158617333Y-90802667D01*
X158384000Y-91069333D01*
X158484000Y-91069333D01*
X158550667Y-91102667D01*
X158584000Y-91136000D01*
X158617333Y-91202667D01*
X158617333Y-91369333D01*
X158584000Y-91436000D01*
X158550667Y-91469333D01*
X158484000Y-91502667D01*
X158284000Y-91502667D01*
X158217333Y-91469333D01*
X158184000Y-91436000D01*
X148473334Y-90166000D02*
X148440000Y-90199333D01*
X148340000Y-90232667D01*
X148273334Y-90232667D01*
X148173334Y-90199333D01*
X148106667Y-90132667D01*
X148073334Y-90066000D01*
X148040000Y-89932667D01*
X148040000Y-89832667D01*
X148073334Y-89699333D01*
X148106667Y-89632667D01*
X148173334Y-89566000D01*
X148273334Y-89532667D01*
X148340000Y-89532667D01*
X148440000Y-89566000D01*
X148473334Y-89599333D01*
X149106667Y-89532667D02*
X148773334Y-89532667D01*
X148740000Y-89866000D01*
X148773334Y-89832667D01*
X148840000Y-89799333D01*
X149006667Y-89799333D01*
X149073334Y-89832667D01*
X149106667Y-89866000D01*
X149140000Y-89932667D01*
X149140000Y-90099333D01*
X149106667Y-90166000D01*
X149073334Y-90199333D01*
X149006667Y-90232667D01*
X148840000Y-90232667D01*
X148773334Y-90199333D01*
X148740000Y-90166000D01*
X143393334Y-90166000D02*
X143360000Y-90199333D01*
X143260000Y-90232667D01*
X143193334Y-90232667D01*
X143093334Y-90199333D01*
X143026667Y-90132667D01*
X142993334Y-90066000D01*
X142960000Y-89932667D01*
X142960000Y-89832667D01*
X142993334Y-89699333D01*
X143026667Y-89632667D01*
X143093334Y-89566000D01*
X143193334Y-89532667D01*
X143260000Y-89532667D01*
X143360000Y-89566000D01*
X143393334Y-89599333D01*
X143993334Y-89532667D02*
X143860000Y-89532667D01*
X143793334Y-89566000D01*
X143760000Y-89599333D01*
X143693334Y-89699333D01*
X143660000Y-89832667D01*
X143660000Y-90099333D01*
X143693334Y-90166000D01*
X143726667Y-90199333D01*
X143793334Y-90232667D01*
X143926667Y-90232667D01*
X143993334Y-90199333D01*
X144026667Y-90166000D01*
X144060000Y-90099333D01*
X144060000Y-89932667D01*
X144026667Y-89866000D01*
X143993334Y-89832667D01*
X143926667Y-89799333D01*
X143793334Y-89799333D01*
X143726667Y-89832667D01*
X143693334Y-89866000D01*
X143660000Y-89932667D01*
X140599334Y-91690000D02*
X140566000Y-91723333D01*
X140466000Y-91756667D01*
X140399334Y-91756667D01*
X140299334Y-91723333D01*
X140232667Y-91656667D01*
X140199334Y-91590000D01*
X140166000Y-91456667D01*
X140166000Y-91356667D01*
X140199334Y-91223333D01*
X140232667Y-91156667D01*
X140299334Y-91090000D01*
X140399334Y-91056667D01*
X140466000Y-91056667D01*
X140566000Y-91090000D01*
X140599334Y-91123333D01*
X140832667Y-91056667D02*
X141299334Y-91056667D01*
X140999334Y-91756667D01*
X140599334Y-90674000D02*
X140566000Y-90707333D01*
X140466000Y-90740667D01*
X140399334Y-90740667D01*
X140299334Y-90707333D01*
X140232667Y-90640667D01*
X140199334Y-90574000D01*
X140166000Y-90440667D01*
X140166000Y-90340667D01*
X140199334Y-90207333D01*
X140232667Y-90140667D01*
X140299334Y-90074000D01*
X140399334Y-90040667D01*
X140466000Y-90040667D01*
X140566000Y-90074000D01*
X140599334Y-90107333D01*
X140999334Y-90340667D02*
X140932667Y-90307333D01*
X140899334Y-90274000D01*
X140866000Y-90207333D01*
X140866000Y-90174000D01*
X140899334Y-90107333D01*
X140932667Y-90074000D01*
X140999334Y-90040667D01*
X141132667Y-90040667D01*
X141199334Y-90074000D01*
X141232667Y-90107333D01*
X141266000Y-90174000D01*
X141266000Y-90207333D01*
X141232667Y-90274000D01*
X141199334Y-90307333D01*
X141132667Y-90340667D01*
X140999334Y-90340667D01*
X140932667Y-90374000D01*
X140899334Y-90407333D01*
X140866000Y-90474000D01*
X140866000Y-90607333D01*
X140899334Y-90674000D01*
X140932667Y-90707333D01*
X140999334Y-90740667D01*
X141132667Y-90740667D01*
X141199334Y-90707333D01*
X141232667Y-90674000D01*
X141266000Y-90607333D01*
X141266000Y-90474000D01*
X141232667Y-90407333D01*
X141199334Y-90374000D01*
X141132667Y-90340667D01*
X151279334Y-92960000D02*
X151246000Y-92993333D01*
X151146000Y-93026667D01*
X151079334Y-93026667D01*
X150979334Y-92993333D01*
X150912667Y-92926667D01*
X150879334Y-92860000D01*
X150846000Y-92726667D01*
X150846000Y-92626667D01*
X150879334Y-92493333D01*
X150912667Y-92426667D01*
X150979334Y-92360000D01*
X151079334Y-92326667D01*
X151146000Y-92326667D01*
X151246000Y-92360000D01*
X151279334Y-92393333D01*
X151612667Y-93026667D02*
X151746000Y-93026667D01*
X151812667Y-92993333D01*
X151846000Y-92960000D01*
X151912667Y-92860000D01*
X151946000Y-92726667D01*
X151946000Y-92460000D01*
X151912667Y-92393333D01*
X151879334Y-92360000D01*
X151812667Y-92326667D01*
X151679334Y-92326667D01*
X151612667Y-92360000D01*
X151579334Y-92393333D01*
X151546000Y-92460000D01*
X151546000Y-92626667D01*
X151579334Y-92693333D01*
X151612667Y-92726667D01*
X151679334Y-92760000D01*
X151812667Y-92760000D01*
X151879334Y-92726667D01*
X151912667Y-92693333D01*
X151946000Y-92626667D01*
X152331000Y-86292500D02*
X152297666Y-86325833D01*
X152197666Y-86359167D01*
X152131000Y-86359167D01*
X152031000Y-86325833D01*
X151964333Y-86259167D01*
X151931000Y-86192500D01*
X151897666Y-86059167D01*
X151897666Y-85959167D01*
X151931000Y-85825833D01*
X151964333Y-85759167D01*
X152031000Y-85692500D01*
X152131000Y-85659167D01*
X152197666Y-85659167D01*
X152297666Y-85692500D01*
X152331000Y-85725833D01*
X152997666Y-86359167D02*
X152597666Y-86359167D01*
X152797666Y-86359167D02*
X152797666Y-85659167D01*
X152731000Y-85759167D01*
X152664333Y-85825833D01*
X152597666Y-85859167D01*
X153664333Y-86359167D02*
X153264333Y-86359167D01*
X153464333Y-86359167D02*
X153464333Y-85659167D01*
X153397667Y-85759167D01*
X153331000Y-85825833D01*
X153264333Y-85859167D01*
X133662000Y-86356000D02*
X133628666Y-86389333D01*
X133528666Y-86422667D01*
X133462000Y-86422667D01*
X133362000Y-86389333D01*
X133295333Y-86322667D01*
X133262000Y-86256000D01*
X133228666Y-86122667D01*
X133228666Y-86022667D01*
X133262000Y-85889333D01*
X133295333Y-85822667D01*
X133362000Y-85756000D01*
X133462000Y-85722667D01*
X133528666Y-85722667D01*
X133628666Y-85756000D01*
X133662000Y-85789333D01*
X134328666Y-86422667D02*
X133928666Y-86422667D01*
X134128666Y-86422667D02*
X134128666Y-85722667D01*
X134062000Y-85822667D01*
X133995333Y-85889333D01*
X133928666Y-85922667D01*
X134595333Y-85789333D02*
X134628667Y-85756000D01*
X134695333Y-85722667D01*
X134862000Y-85722667D01*
X134928667Y-85756000D01*
X134962000Y-85789333D01*
X134995333Y-85856000D01*
X134995333Y-85922667D01*
X134962000Y-86022667D01*
X134562000Y-86422667D01*
X134995333Y-86422667D01*
X152331000Y-84832000D02*
X152297666Y-84865333D01*
X152197666Y-84898667D01*
X152131000Y-84898667D01*
X152031000Y-84865333D01*
X151964333Y-84798667D01*
X151931000Y-84732000D01*
X151897666Y-84598667D01*
X151897666Y-84498667D01*
X151931000Y-84365333D01*
X151964333Y-84298667D01*
X152031000Y-84232000D01*
X152131000Y-84198667D01*
X152197666Y-84198667D01*
X152297666Y-84232000D01*
X152331000Y-84265333D01*
X152997666Y-84898667D02*
X152597666Y-84898667D01*
X152797666Y-84898667D02*
X152797666Y-84198667D01*
X152731000Y-84298667D01*
X152664333Y-84365333D01*
X152597666Y-84398667D01*
X153231000Y-84198667D02*
X153664333Y-84198667D01*
X153431000Y-84465333D01*
X153531000Y-84465333D01*
X153597667Y-84498667D01*
X153631000Y-84532000D01*
X153664333Y-84598667D01*
X153664333Y-84765333D01*
X153631000Y-84832000D01*
X153597667Y-84865333D01*
X153531000Y-84898667D01*
X153331000Y-84898667D01*
X153264333Y-84865333D01*
X153231000Y-84832000D01*
X133662000Y-84832000D02*
X133628666Y-84865333D01*
X133528666Y-84898667D01*
X133462000Y-84898667D01*
X133362000Y-84865333D01*
X133295333Y-84798667D01*
X133262000Y-84732000D01*
X133228666Y-84598667D01*
X133228666Y-84498667D01*
X133262000Y-84365333D01*
X133295333Y-84298667D01*
X133362000Y-84232000D01*
X133462000Y-84198667D01*
X133528666Y-84198667D01*
X133628666Y-84232000D01*
X133662000Y-84265333D01*
X134328666Y-84898667D02*
X133928666Y-84898667D01*
X134128666Y-84898667D02*
X134128666Y-84198667D01*
X134062000Y-84298667D01*
X133995333Y-84365333D01*
X133928666Y-84398667D01*
X134928667Y-84432000D02*
X134928667Y-84898667D01*
X134762000Y-84165333D02*
X134595333Y-84665333D01*
X135028667Y-84665333D01*
X155379000Y-80260000D02*
X155345666Y-80293333D01*
X155245666Y-80326667D01*
X155179000Y-80326667D01*
X155079000Y-80293333D01*
X155012333Y-80226667D01*
X154979000Y-80160000D01*
X154945666Y-80026667D01*
X154945666Y-79926667D01*
X154979000Y-79793333D01*
X155012333Y-79726667D01*
X155079000Y-79660000D01*
X155179000Y-79626667D01*
X155245666Y-79626667D01*
X155345666Y-79660000D01*
X155379000Y-79693333D01*
X156045666Y-80326667D02*
X155645666Y-80326667D01*
X155845666Y-80326667D02*
X155845666Y-79626667D01*
X155779000Y-79726667D01*
X155712333Y-79793333D01*
X155645666Y-79826667D01*
X156279000Y-79626667D02*
X156745667Y-79626667D01*
X156445667Y-80326667D01*
X136710000Y-80260000D02*
X136676666Y-80293333D01*
X136576666Y-80326667D01*
X136510000Y-80326667D01*
X136410000Y-80293333D01*
X136343333Y-80226667D01*
X136310000Y-80160000D01*
X136276666Y-80026667D01*
X136276666Y-79926667D01*
X136310000Y-79793333D01*
X136343333Y-79726667D01*
X136410000Y-79660000D01*
X136510000Y-79626667D01*
X136576666Y-79626667D01*
X136676666Y-79660000D01*
X136710000Y-79693333D01*
X137376666Y-80326667D02*
X136976666Y-80326667D01*
X137176666Y-80326667D02*
X137176666Y-79626667D01*
X137110000Y-79726667D01*
X137043333Y-79793333D01*
X136976666Y-79826667D01*
X137776667Y-79926667D02*
X137710000Y-79893333D01*
X137676667Y-79860000D01*
X137643333Y-79793333D01*
X137643333Y-79760000D01*
X137676667Y-79693333D01*
X137710000Y-79660000D01*
X137776667Y-79626667D01*
X137910000Y-79626667D01*
X137976667Y-79660000D01*
X138010000Y-79693333D01*
X138043333Y-79760000D01*
X138043333Y-79793333D01*
X138010000Y-79860000D01*
X137976667Y-79893333D01*
X137910000Y-79926667D01*
X137776667Y-79926667D01*
X137710000Y-79960000D01*
X137676667Y-79993333D01*
X137643333Y-80060000D01*
X137643333Y-80193333D01*
X137676667Y-80260000D01*
X137710000Y-80293333D01*
X137776667Y-80326667D01*
X137910000Y-80326667D01*
X137976667Y-80293333D01*
X138010000Y-80260000D01*
X138043333Y-80193333D01*
X138043333Y-80060000D01*
X138010000Y-79993333D01*
X137976667Y-79960000D01*
X137910000Y-79926667D01*
X136206667Y-91782000D02*
X135506667Y-91782000D01*
X135506667Y-91615334D01*
X135540000Y-91515334D01*
X135606667Y-91448667D01*
X135673333Y-91415334D01*
X135806667Y-91382000D01*
X135906667Y-91382000D01*
X136040000Y-91415334D01*
X136106667Y-91448667D01*
X136173333Y-91515334D01*
X136206667Y-91615334D01*
X136206667Y-91782000D01*
X136206667Y-90715334D02*
X136206667Y-91115334D01*
X136206667Y-90915334D02*
X135506667Y-90915334D01*
X135606667Y-90982000D01*
X135673333Y-91048667D01*
X135706667Y-91115334D01*
X135506667Y-90282000D02*
X135506667Y-90215333D01*
X135540000Y-90148667D01*
X135573333Y-90115333D01*
X135640000Y-90082000D01*
X135773333Y-90048667D01*
X135940000Y-90048667D01*
X136073333Y-90082000D01*
X136140000Y-90115333D01*
X136173333Y-90148667D01*
X136206667Y-90215333D01*
X136206667Y-90282000D01*
X136173333Y-90348667D01*
X136140000Y-90382000D01*
X136073333Y-90415333D01*
X135940000Y-90448667D01*
X135773333Y-90448667D01*
X135640000Y-90415333D01*
X135573333Y-90382000D01*
X135540000Y-90348667D01*
X135506667Y-90282000D01*
X138238667Y-91782000D02*
X137538667Y-91782000D01*
X137538667Y-91615334D01*
X137572000Y-91515334D01*
X137638667Y-91448667D01*
X137705333Y-91415334D01*
X137838667Y-91382000D01*
X137938667Y-91382000D01*
X138072000Y-91415334D01*
X138138667Y-91448667D01*
X138205333Y-91515334D01*
X138238667Y-91615334D01*
X138238667Y-91782000D01*
X138238667Y-90715334D02*
X138238667Y-91115334D01*
X138238667Y-90915334D02*
X137538667Y-90915334D01*
X137638667Y-90982000D01*
X137705333Y-91048667D01*
X137738667Y-91115334D01*
X138238667Y-90048667D02*
X138238667Y-90448667D01*
X138238667Y-90248667D02*
X137538667Y-90248667D01*
X137638667Y-90315333D01*
X137705333Y-90382000D01*
X137738667Y-90448667D01*
X156272667Y-92036000D02*
X155572667Y-92036000D01*
X155572667Y-91869334D01*
X155606000Y-91769334D01*
X155672667Y-91702667D01*
X155739333Y-91669334D01*
X155872667Y-91636000D01*
X155972667Y-91636000D01*
X156106000Y-91669334D01*
X156172667Y-91702667D01*
X156239333Y-91769334D01*
X156272667Y-91869334D01*
X156272667Y-92036000D01*
X156272667Y-90969334D02*
X156272667Y-91369334D01*
X156272667Y-91169334D02*
X155572667Y-91169334D01*
X155672667Y-91236000D01*
X155739333Y-91302667D01*
X155772667Y-91369334D01*
X155639333Y-90702667D02*
X155606000Y-90669333D01*
X155572667Y-90602667D01*
X155572667Y-90436000D01*
X155606000Y-90369333D01*
X155639333Y-90336000D01*
X155706000Y-90302667D01*
X155772667Y-90302667D01*
X155872667Y-90336000D01*
X156272667Y-90736000D01*
X156272667Y-90302667D01*
X154494667Y-92036000D02*
X153794667Y-92036000D01*
X153794667Y-91869334D01*
X153828000Y-91769334D01*
X153894667Y-91702667D01*
X153961333Y-91669334D01*
X154094667Y-91636000D01*
X154194667Y-91636000D01*
X154328000Y-91669334D01*
X154394667Y-91702667D01*
X154461333Y-91769334D01*
X154494667Y-91869334D01*
X154494667Y-92036000D01*
X154494667Y-90969334D02*
X154494667Y-91369334D01*
X154494667Y-91169334D02*
X153794667Y-91169334D01*
X153894667Y-91236000D01*
X153961333Y-91302667D01*
X153994667Y-91369334D01*
X153794667Y-90736000D02*
X153794667Y-90302667D01*
X154061333Y-90536000D01*
X154061333Y-90436000D01*
X154094667Y-90369333D01*
X154128000Y-90336000D01*
X154194667Y-90302667D01*
X154361333Y-90302667D01*
X154428000Y-90336000D01*
X154461333Y-90369333D01*
X154494667Y-90436000D01*
X154494667Y-90636000D01*
X154461333Y-90702667D01*
X154428000Y-90736000D01*
X131338667Y-96136667D02*
X131338667Y-96636667D01*
X131305333Y-96736667D01*
X131238667Y-96803333D01*
X131138667Y-96836667D01*
X131072000Y-96836667D01*
X131705333Y-96836667D02*
X131838666Y-96836667D01*
X131905333Y-96803333D01*
X131938666Y-96770000D01*
X132005333Y-96670000D01*
X132038666Y-96536667D01*
X132038666Y-96270000D01*
X132005333Y-96203333D01*
X131972000Y-96170000D01*
X131905333Y-96136667D01*
X131772000Y-96136667D01*
X131705333Y-96170000D01*
X131672000Y-96203333D01*
X131638666Y-96270000D01*
X131638666Y-96436667D01*
X131672000Y-96503333D01*
X131705333Y-96536667D01*
X131772000Y-96570000D01*
X131905333Y-96570000D01*
X131972000Y-96536667D01*
X132005333Y-96503333D01*
X132038666Y-96436667D01*
X159453334Y-88008667D02*
X159453334Y-88508667D01*
X159420000Y-88608667D01*
X159353334Y-88675333D01*
X159253334Y-88708667D01*
X159186667Y-88708667D01*
X160153333Y-88708667D02*
X159753333Y-88708667D01*
X159953333Y-88708667D02*
X159953333Y-88008667D01*
X159886667Y-88108667D01*
X159820000Y-88175333D01*
X159753333Y-88208667D01*
X160586667Y-88008667D02*
X160653334Y-88008667D01*
X160720000Y-88042000D01*
X160753334Y-88075333D01*
X160786667Y-88142000D01*
X160820000Y-88275333D01*
X160820000Y-88442000D01*
X160786667Y-88575333D01*
X160753334Y-88642000D01*
X160720000Y-88675333D01*
X160653334Y-88708667D01*
X160586667Y-88708667D01*
X160520000Y-88675333D01*
X160486667Y-88642000D01*
X160453334Y-88575333D01*
X160420000Y-88442000D01*
X160420000Y-88275333D01*
X160453334Y-88142000D01*
X160486667Y-88075333D01*
X160520000Y-88042000D01*
X160586667Y-88008667D01*
X159707334Y-97660667D02*
X159707334Y-98160667D01*
X159674000Y-98260667D01*
X159607334Y-98327333D01*
X159507334Y-98360667D01*
X159440667Y-98360667D01*
X160407333Y-98360667D02*
X160007333Y-98360667D01*
X160207333Y-98360667D02*
X160207333Y-97660667D01*
X160140667Y-97760667D01*
X160074000Y-97827333D01*
X160007333Y-97860667D01*
X161074000Y-98360667D02*
X160674000Y-98360667D01*
X160874000Y-98360667D02*
X160874000Y-97660667D01*
X160807334Y-97760667D01*
X160740667Y-97827333D01*
X160674000Y-97860667D01*
D12*
X145240477Y-106386381D02*
X145240477Y-107100667D01*
X145192857Y-107243524D01*
X145097619Y-107338762D01*
X144954762Y-107386381D01*
X144859524Y-107386381D01*
X146240477Y-107386381D02*
X145669048Y-107386381D01*
X145954762Y-107386381D02*
X145954762Y-106386381D01*
X145859524Y-106529238D01*
X145764286Y-106624476D01*
X145669048Y-106672095D01*
X146621429Y-106481619D02*
X146669048Y-106434000D01*
X146764286Y-106386381D01*
X147002382Y-106386381D01*
X147097620Y-106434000D01*
X147145239Y-106481619D01*
X147192858Y-106576857D01*
X147192858Y-106672095D01*
X147145239Y-106814952D01*
X146573810Y-107386381D01*
X147192858Y-107386381D01*
X154130477Y-73874381D02*
X154130477Y-74588667D01*
X154082857Y-74731524D01*
X153987619Y-74826762D01*
X153844762Y-74874381D01*
X153749524Y-74874381D01*
X155130477Y-74874381D02*
X154559048Y-74874381D01*
X154844762Y-74874381D02*
X154844762Y-73874381D01*
X154749524Y-74017238D01*
X154654286Y-74112476D01*
X154559048Y-74160095D01*
X155463810Y-73874381D02*
X156082858Y-73874381D01*
X155749524Y-74255333D01*
X155892382Y-74255333D01*
X155987620Y-74302952D01*
X156035239Y-74350571D01*
X156082858Y-74445810D01*
X156082858Y-74683905D01*
X156035239Y-74779143D01*
X155987620Y-74826762D01*
X155892382Y-74874381D01*
X155606667Y-74874381D01*
X155511429Y-74826762D01*
X155463810Y-74779143D01*
X145240477Y-73874381D02*
X145240477Y-74588667D01*
X145192857Y-74731524D01*
X145097619Y-74826762D01*
X144954762Y-74874381D01*
X144859524Y-74874381D01*
X146240477Y-74874381D02*
X145669048Y-74874381D01*
X145954762Y-74874381D02*
X145954762Y-73874381D01*
X145859524Y-74017238D01*
X145764286Y-74112476D01*
X145669048Y-74160095D01*
X147145239Y-73874381D02*
X146669048Y-73874381D01*
X146621429Y-74350571D01*
X146669048Y-74302952D01*
X146764286Y-74255333D01*
X147002382Y-74255333D01*
X147097620Y-74302952D01*
X147145239Y-74350571D01*
X147192858Y-74445810D01*
X147192858Y-74683905D01*
X147145239Y-74779143D01*
X147097620Y-74826762D01*
X147002382Y-74874381D01*
X146764286Y-74874381D01*
X146669048Y-74826762D01*
X146621429Y-74779143D01*
D10*
X147711333Y-88708667D02*
X147378000Y-88708667D01*
X147378000Y-88008667D01*
X148311333Y-88708667D02*
X147911333Y-88708667D01*
X148111333Y-88708667D02*
X148111333Y-88008667D01*
X148044667Y-88108667D01*
X147978000Y-88175333D01*
X147911333Y-88208667D01*
X144155333Y-88708667D02*
X143822000Y-88708667D01*
X143822000Y-88008667D01*
X144355333Y-88075333D02*
X144388667Y-88042000D01*
X144455333Y-88008667D01*
X144622000Y-88008667D01*
X144688667Y-88042000D01*
X144722000Y-88075333D01*
X144755333Y-88142000D01*
X144755333Y-88208667D01*
X144722000Y-88308667D01*
X144322000Y-88708667D01*
X144755333Y-88708667D01*
X141540667Y-99256000D02*
X141207333Y-99489334D01*
X141540667Y-99656000D02*
X140840667Y-99656000D01*
X140840667Y-99389334D01*
X140874000Y-99322667D01*
X140907333Y-99289334D01*
X140974000Y-99256000D01*
X141074000Y-99256000D01*
X141140667Y-99289334D01*
X141174000Y-99322667D01*
X141207333Y-99389334D01*
X141207333Y-99656000D01*
X141540667Y-98589334D02*
X141540667Y-98989334D01*
X141540667Y-98789334D02*
X140840667Y-98789334D01*
X140940667Y-98856000D01*
X141007333Y-98922667D01*
X141040667Y-98989334D01*
X140840667Y-98356000D02*
X140840667Y-97922667D01*
X141107333Y-98156000D01*
X141107333Y-98056000D01*
X141140667Y-97989333D01*
X141174000Y-97956000D01*
X141240667Y-97922667D01*
X141407333Y-97922667D01*
X141474000Y-97956000D01*
X141507333Y-97989333D01*
X141540667Y-98056000D01*
X141540667Y-98256000D01*
X141507333Y-98322667D01*
X141474000Y-98356000D01*
X140270667Y-99256000D02*
X139937333Y-99489334D01*
X140270667Y-99656000D02*
X139570667Y-99656000D01*
X139570667Y-99389334D01*
X139604000Y-99322667D01*
X139637333Y-99289334D01*
X139704000Y-99256000D01*
X139804000Y-99256000D01*
X139870667Y-99289334D01*
X139904000Y-99322667D01*
X139937333Y-99389334D01*
X139937333Y-99656000D01*
X140270667Y-98589334D02*
X140270667Y-98989334D01*
X140270667Y-98789334D02*
X139570667Y-98789334D01*
X139670667Y-98856000D01*
X139737333Y-98922667D01*
X139770667Y-98989334D01*
X139804000Y-97989333D02*
X140270667Y-97989333D01*
X139537333Y-98156000D02*
X140037333Y-98322667D01*
X140037333Y-97889333D01*
X151192667Y-100526000D02*
X150859333Y-100759334D01*
X151192667Y-100926000D02*
X150492667Y-100926000D01*
X150492667Y-100659334D01*
X150526000Y-100592667D01*
X150559333Y-100559334D01*
X150626000Y-100526000D01*
X150726000Y-100526000D01*
X150792667Y-100559334D01*
X150826000Y-100592667D01*
X150859333Y-100659334D01*
X150859333Y-100926000D01*
X151192667Y-99859334D02*
X151192667Y-100259334D01*
X151192667Y-100059334D02*
X150492667Y-100059334D01*
X150592667Y-100126000D01*
X150659333Y-100192667D01*
X150692667Y-100259334D01*
X150492667Y-99226000D02*
X150492667Y-99559333D01*
X150826000Y-99592667D01*
X150792667Y-99559333D01*
X150759333Y-99492667D01*
X150759333Y-99326000D01*
X150792667Y-99259333D01*
X150826000Y-99226000D01*
X150892667Y-99192667D01*
X151059333Y-99192667D01*
X151126000Y-99226000D01*
X151159333Y-99259333D01*
X151192667Y-99326000D01*
X151192667Y-99492667D01*
X151159333Y-99559333D01*
X151126000Y-99592667D01*
X152462667Y-100526000D02*
X152129333Y-100759334D01*
X152462667Y-100926000D02*
X151762667Y-100926000D01*
X151762667Y-100659334D01*
X151796000Y-100592667D01*
X151829333Y-100559334D01*
X151896000Y-100526000D01*
X151996000Y-100526000D01*
X152062667Y-100559334D01*
X152096000Y-100592667D01*
X152129333Y-100659334D01*
X152129333Y-100926000D01*
X152462667Y-99859334D02*
X152462667Y-100259334D01*
X152462667Y-100059334D02*
X151762667Y-100059334D01*
X151862667Y-100126000D01*
X151929333Y-100192667D01*
X151962667Y-100259334D01*
X151762667Y-99259333D02*
X151762667Y-99392667D01*
X151796000Y-99459333D01*
X151829333Y-99492667D01*
X151929333Y-99559333D01*
X152062667Y-99592667D01*
X152329333Y-99592667D01*
X152396000Y-99559333D01*
X152429333Y-99526000D01*
X152462667Y-99459333D01*
X152462667Y-99326000D01*
X152429333Y-99259333D01*
X152396000Y-99226000D01*
X152329333Y-99192667D01*
X152162667Y-99192667D01*
X152096000Y-99226000D01*
X152062667Y-99259333D01*
X152029333Y-99326000D01*
X152029333Y-99459333D01*
X152062667Y-99526000D01*
X152096000Y-99559333D01*
X152162667Y-99592667D01*
X136460667Y-100272000D02*
X136127333Y-100505334D01*
X136460667Y-100672000D02*
X135760667Y-100672000D01*
X135760667Y-100405334D01*
X135794000Y-100338667D01*
X135827333Y-100305334D01*
X135894000Y-100272000D01*
X135994000Y-100272000D01*
X136060667Y-100305334D01*
X136094000Y-100338667D01*
X136127333Y-100405334D01*
X136127333Y-100672000D01*
X136460667Y-99605334D02*
X136460667Y-100005334D01*
X136460667Y-99805334D02*
X135760667Y-99805334D01*
X135860667Y-99872000D01*
X135927333Y-99938667D01*
X135960667Y-100005334D01*
X135760667Y-99372000D02*
X135760667Y-98905333D01*
X136460667Y-99205333D01*
X137984667Y-100272000D02*
X137651333Y-100505334D01*
X137984667Y-100672000D02*
X137284667Y-100672000D01*
X137284667Y-100405334D01*
X137318000Y-100338667D01*
X137351333Y-100305334D01*
X137418000Y-100272000D01*
X137518000Y-100272000D01*
X137584667Y-100305334D01*
X137618000Y-100338667D01*
X137651333Y-100405334D01*
X137651333Y-100672000D01*
X137984667Y-99605334D02*
X137984667Y-100005334D01*
X137984667Y-99805334D02*
X137284667Y-99805334D01*
X137384667Y-99872000D01*
X137451333Y-99938667D01*
X137484667Y-100005334D01*
X137584667Y-99205333D02*
X137551333Y-99272000D01*
X137518000Y-99305333D01*
X137451333Y-99338667D01*
X137418000Y-99338667D01*
X137351333Y-99305333D01*
X137318000Y-99272000D01*
X137284667Y-99205333D01*
X137284667Y-99072000D01*
X137318000Y-99005333D01*
X137351333Y-98972000D01*
X137418000Y-98938667D01*
X137451333Y-98938667D01*
X137518000Y-98972000D01*
X137551333Y-99005333D01*
X137584667Y-99072000D01*
X137584667Y-99205333D01*
X137618000Y-99272000D01*
X137651333Y-99305333D01*
X137718000Y-99338667D01*
X137851333Y-99338667D01*
X137918000Y-99305333D01*
X137951333Y-99272000D01*
X137984667Y-99205333D01*
X137984667Y-99072000D01*
X137951333Y-99005333D01*
X137918000Y-98972000D01*
X137851333Y-98938667D01*
X137718000Y-98938667D01*
X137651333Y-98972000D01*
X137618000Y-99005333D01*
X137584667Y-99072000D01*
X156018667Y-100780000D02*
X155685333Y-101013334D01*
X156018667Y-101180000D02*
X155318667Y-101180000D01*
X155318667Y-100913334D01*
X155352000Y-100846667D01*
X155385333Y-100813334D01*
X155452000Y-100780000D01*
X155552000Y-100780000D01*
X155618667Y-100813334D01*
X155652000Y-100846667D01*
X155685333Y-100913334D01*
X155685333Y-101180000D01*
X156018667Y-100113334D02*
X156018667Y-100513334D01*
X156018667Y-100313334D02*
X155318667Y-100313334D01*
X155418667Y-100380000D01*
X155485333Y-100446667D01*
X155518667Y-100513334D01*
X156018667Y-99780000D02*
X156018667Y-99646667D01*
X155985333Y-99580000D01*
X155952000Y-99546667D01*
X155852000Y-99480000D01*
X155718667Y-99446667D01*
X155452000Y-99446667D01*
X155385333Y-99480000D01*
X155352000Y-99513333D01*
X155318667Y-99580000D01*
X155318667Y-99713333D01*
X155352000Y-99780000D01*
X155385333Y-99813333D01*
X155452000Y-99846667D01*
X155618667Y-99846667D01*
X155685333Y-99813333D01*
X155718667Y-99780000D01*
X155752000Y-99713333D01*
X155752000Y-99580000D01*
X155718667Y-99513333D01*
X155685333Y-99480000D01*
X155618667Y-99446667D01*
X154748667Y-100780000D02*
X154415333Y-101013334D01*
X154748667Y-101180000D02*
X154048667Y-101180000D01*
X154048667Y-100913334D01*
X154082000Y-100846667D01*
X154115333Y-100813334D01*
X154182000Y-100780000D01*
X154282000Y-100780000D01*
X154348667Y-100813334D01*
X154382000Y-100846667D01*
X154415333Y-100913334D01*
X154415333Y-101180000D01*
X154115333Y-100513334D02*
X154082000Y-100480000D01*
X154048667Y-100413334D01*
X154048667Y-100246667D01*
X154082000Y-100180000D01*
X154115333Y-100146667D01*
X154182000Y-100113334D01*
X154248667Y-100113334D01*
X154348667Y-100146667D01*
X154748667Y-100546667D01*
X154748667Y-100113334D01*
X154048667Y-99680000D02*
X154048667Y-99613333D01*
X154082000Y-99546667D01*
X154115333Y-99513333D01*
X154182000Y-99480000D01*
X154315333Y-99446667D01*
X154482000Y-99446667D01*
X154615333Y-99480000D01*
X154682000Y-99513333D01*
X154715333Y-99546667D01*
X154748667Y-99613333D01*
X154748667Y-99680000D01*
X154715333Y-99746667D01*
X154682000Y-99780000D01*
X154615333Y-99813333D01*
X154482000Y-99846667D01*
X154315333Y-99846667D01*
X154182000Y-99813333D01*
X154115333Y-99780000D01*
X154082000Y-99746667D01*
X154048667Y-99680000D01*
X133662000Y-91248667D02*
X133428666Y-90915333D01*
X133262000Y-91248667D02*
X133262000Y-90548667D01*
X133528666Y-90548667D01*
X133595333Y-90582000D01*
X133628666Y-90615333D01*
X133662000Y-90682000D01*
X133662000Y-90782000D01*
X133628666Y-90848667D01*
X133595333Y-90882000D01*
X133528666Y-90915333D01*
X133262000Y-90915333D01*
X133928666Y-90615333D02*
X133962000Y-90582000D01*
X134028666Y-90548667D01*
X134195333Y-90548667D01*
X134262000Y-90582000D01*
X134295333Y-90615333D01*
X134328666Y-90682000D01*
X134328666Y-90748667D01*
X134295333Y-90848667D01*
X133895333Y-91248667D01*
X134328666Y-91248667D01*
X134995333Y-91248667D02*
X134595333Y-91248667D01*
X134795333Y-91248667D02*
X134795333Y-90548667D01*
X134728667Y-90648667D01*
X134662000Y-90715333D01*
X134595333Y-90748667D01*
X133154000Y-97344667D02*
X132920666Y-97011333D01*
X132754000Y-97344667D02*
X132754000Y-96644667D01*
X133020666Y-96644667D01*
X133087333Y-96678000D01*
X133120666Y-96711333D01*
X133154000Y-96778000D01*
X133154000Y-96878000D01*
X133120666Y-96944667D01*
X133087333Y-96978000D01*
X133020666Y-97011333D01*
X132754000Y-97011333D01*
X133420666Y-96711333D02*
X133454000Y-96678000D01*
X133520666Y-96644667D01*
X133687333Y-96644667D01*
X133754000Y-96678000D01*
X133787333Y-96711333D01*
X133820666Y-96778000D01*
X133820666Y-96844667D01*
X133787333Y-96944667D01*
X133387333Y-97344667D01*
X133820666Y-97344667D01*
X134087333Y-96711333D02*
X134120667Y-96678000D01*
X134187333Y-96644667D01*
X134354000Y-96644667D01*
X134420667Y-96678000D01*
X134454000Y-96711333D01*
X134487333Y-96778000D01*
X134487333Y-96844667D01*
X134454000Y-96944667D01*
X134054000Y-97344667D01*
X134487333Y-97344667D01*
X157538000Y-97852667D02*
X157304666Y-97519333D01*
X157138000Y-97852667D02*
X157138000Y-97152667D01*
X157404666Y-97152667D01*
X157471333Y-97186000D01*
X157504666Y-97219333D01*
X157538000Y-97286000D01*
X157538000Y-97386000D01*
X157504666Y-97452667D01*
X157471333Y-97486000D01*
X157404666Y-97519333D01*
X157138000Y-97519333D01*
X157804666Y-97219333D02*
X157838000Y-97186000D01*
X157904666Y-97152667D01*
X158071333Y-97152667D01*
X158138000Y-97186000D01*
X158171333Y-97219333D01*
X158204666Y-97286000D01*
X158204666Y-97352667D01*
X158171333Y-97452667D01*
X157771333Y-97852667D01*
X158204666Y-97852667D01*
X158804667Y-97386000D02*
X158804667Y-97852667D01*
X158638000Y-97119333D02*
X158471333Y-97619333D01*
X158904667Y-97619333D01*
X149922667Y-80968000D02*
X149589333Y-81201334D01*
X149922667Y-81368000D02*
X149222667Y-81368000D01*
X149222667Y-81101334D01*
X149256000Y-81034667D01*
X149289333Y-81001334D01*
X149356000Y-80968000D01*
X149456000Y-80968000D01*
X149522667Y-81001334D01*
X149556000Y-81034667D01*
X149589333Y-81101334D01*
X149589333Y-81368000D01*
X149289333Y-80701334D02*
X149256000Y-80668000D01*
X149222667Y-80601334D01*
X149222667Y-80434667D01*
X149256000Y-80368000D01*
X149289333Y-80334667D01*
X149356000Y-80301334D01*
X149422667Y-80301334D01*
X149522667Y-80334667D01*
X149922667Y-80734667D01*
X149922667Y-80301334D01*
X149222667Y-79668000D02*
X149222667Y-80001333D01*
X149556000Y-80034667D01*
X149522667Y-80001333D01*
X149489333Y-79934667D01*
X149489333Y-79768000D01*
X149522667Y-79701333D01*
X149556000Y-79668000D01*
X149622667Y-79634667D01*
X149789333Y-79634667D01*
X149856000Y-79668000D01*
X149889333Y-79701333D01*
X149922667Y-79768000D01*
X149922667Y-79934667D01*
X149889333Y-80001333D01*
X149856000Y-80034667D01*
X142810667Y-80968000D02*
X142477333Y-81201334D01*
X142810667Y-81368000D02*
X142110667Y-81368000D01*
X142110667Y-81101334D01*
X142144000Y-81034667D01*
X142177333Y-81001334D01*
X142244000Y-80968000D01*
X142344000Y-80968000D01*
X142410667Y-81001334D01*
X142444000Y-81034667D01*
X142477333Y-81101334D01*
X142477333Y-81368000D01*
X142177333Y-80701334D02*
X142144000Y-80668000D01*
X142110667Y-80601334D01*
X142110667Y-80434667D01*
X142144000Y-80368000D01*
X142177333Y-80334667D01*
X142244000Y-80301334D01*
X142310667Y-80301334D01*
X142410667Y-80334667D01*
X142810667Y-80734667D01*
X142810667Y-80301334D01*
X142110667Y-79701333D02*
X142110667Y-79834667D01*
X142144000Y-79901333D01*
X142177333Y-79934667D01*
X142277333Y-80001333D01*
X142410667Y-80034667D01*
X142677333Y-80034667D01*
X142744000Y-80001333D01*
X142777333Y-79968000D01*
X142810667Y-79901333D01*
X142810667Y-79768000D01*
X142777333Y-79701333D01*
X142744000Y-79668000D01*
X142677333Y-79634667D01*
X142510667Y-79634667D01*
X142444000Y-79668000D01*
X142410667Y-79701333D01*
X142377333Y-79768000D01*
X142377333Y-79901333D01*
X142410667Y-79968000D01*
X142444000Y-80001333D01*
X142510667Y-80034667D01*
D12*
X143168762Y-104338381D02*
X142835428Y-103862190D01*
X142597333Y-104338381D02*
X142597333Y-103338381D01*
X142978286Y-103338381D01*
X143073524Y-103386000D01*
X143121143Y-103433619D01*
X143168762Y-103528857D01*
X143168762Y-103671714D01*
X143121143Y-103766952D01*
X143073524Y-103814571D01*
X142978286Y-103862190D01*
X142597333Y-103862190D01*
X143454476Y-103338381D02*
X143787809Y-104338381D01*
X144121143Y-103338381D01*
X144978286Y-104338381D02*
X144406857Y-104338381D01*
X144692571Y-104338381D02*
X144692571Y-103338381D01*
X144597333Y-103481238D01*
X144502095Y-103576476D01*
X144406857Y-103624095D01*
X138596762Y-104338381D02*
X138263428Y-103862190D01*
X138025333Y-104338381D02*
X138025333Y-103338381D01*
X138406286Y-103338381D01*
X138501524Y-103386000D01*
X138549143Y-103433619D01*
X138596762Y-103528857D01*
X138596762Y-103671714D01*
X138549143Y-103766952D01*
X138501524Y-103814571D01*
X138406286Y-103862190D01*
X138025333Y-103862190D01*
X138882476Y-103338381D02*
X139215809Y-104338381D01*
X139549143Y-103338381D01*
X139834857Y-103433619D02*
X139882476Y-103386000D01*
X139977714Y-103338381D01*
X140215810Y-103338381D01*
X140311048Y-103386000D01*
X140358667Y-103433619D01*
X140406286Y-103528857D01*
X140406286Y-103624095D01*
X140358667Y-103766952D01*
X139787238Y-104338381D01*
X140406286Y-104338381D01*
X147740762Y-104338381D02*
X147407428Y-103862190D01*
X147169333Y-104338381D02*
X147169333Y-103338381D01*
X147550286Y-103338381D01*
X147645524Y-103386000D01*
X147693143Y-103433619D01*
X147740762Y-103528857D01*
X147740762Y-103671714D01*
X147693143Y-103766952D01*
X147645524Y-103814571D01*
X147550286Y-103862190D01*
X147169333Y-103862190D01*
X148026476Y-103338381D02*
X148359809Y-104338381D01*
X148693143Y-103338381D01*
X148931238Y-103338381D02*
X149550286Y-103338381D01*
X149216952Y-103719333D01*
X149359810Y-103719333D01*
X149455048Y-103766952D01*
X149502667Y-103814571D01*
X149550286Y-103909810D01*
X149550286Y-104147905D01*
X149502667Y-104243143D01*
X149455048Y-104290762D01*
X149359810Y-104338381D01*
X149074095Y-104338381D01*
X148978857Y-104290762D01*
X148931238Y-104243143D01*
X152312762Y-104338381D02*
X151979428Y-103862190D01*
X151741333Y-104338381D02*
X151741333Y-103338381D01*
X152122286Y-103338381D01*
X152217524Y-103386000D01*
X152265143Y-103433619D01*
X152312762Y-103528857D01*
X152312762Y-103671714D01*
X152265143Y-103766952D01*
X152217524Y-103814571D01*
X152122286Y-103862190D01*
X151741333Y-103862190D01*
X152598476Y-103338381D02*
X152931809Y-104338381D01*
X153265143Y-103338381D01*
X154027048Y-103671714D02*
X154027048Y-104338381D01*
X153788952Y-103290762D02*
X153550857Y-104005048D01*
X154169905Y-104005048D01*
D10*
X133578667Y-79880667D02*
X133578667Y-80447333D01*
X133612000Y-80514000D01*
X133645333Y-80547333D01*
X133712000Y-80580667D01*
X133845333Y-80580667D01*
X133912000Y-80547333D01*
X133945333Y-80514000D01*
X133978667Y-80447333D01*
X133978667Y-79880667D01*
X134612000Y-80114000D02*
X134612000Y-80580667D01*
X134445333Y-79847333D02*
X134278666Y-80347333D01*
X134712000Y-80347333D01*
X149984667Y-85115333D02*
X150551333Y-85115333D01*
X150618000Y-85082000D01*
X150651333Y-85048667D01*
X150684667Y-84982000D01*
X150684667Y-84848667D01*
X150651333Y-84782000D01*
X150618000Y-84748667D01*
X150551333Y-84715333D01*
X149984667Y-84715333D01*
X149984667Y-84048667D02*
X149984667Y-84382000D01*
X150318000Y-84415334D01*
X150284667Y-84382000D01*
X150251333Y-84315334D01*
X150251333Y-84148667D01*
X150284667Y-84082000D01*
X150318000Y-84048667D01*
X150384667Y-84015334D01*
X150551333Y-84015334D01*
X150618000Y-84048667D01*
X150651333Y-84082000D01*
X150684667Y-84148667D01*
X150684667Y-84315334D01*
X150651333Y-84382000D01*
X150618000Y-84415334D01*
X126766667Y-91564667D02*
X126766667Y-92064667D01*
X126733333Y-92164667D01*
X126666667Y-92231333D01*
X126566667Y-92264667D01*
X126500000Y-92264667D01*
X127033333Y-91564667D02*
X127466666Y-91564667D01*
X127233333Y-91831333D01*
X127333333Y-91831333D01*
X127400000Y-91864667D01*
X127433333Y-91898000D01*
X127466666Y-91964667D01*
X127466666Y-92131333D01*
X127433333Y-92198000D01*
X127400000Y-92231333D01*
X127333333Y-92264667D01*
X127133333Y-92264667D01*
X127066666Y-92231333D01*
X127033333Y-92198000D01*
X164866667Y-91564667D02*
X164866667Y-92064667D01*
X164833333Y-92164667D01*
X164766667Y-92231333D01*
X164666667Y-92264667D01*
X164600000Y-92264667D01*
X165533333Y-91564667D02*
X165200000Y-91564667D01*
X165166666Y-91898000D01*
X165200000Y-91864667D01*
X165266666Y-91831333D01*
X165433333Y-91831333D01*
X165500000Y-91864667D01*
X165533333Y-91898000D01*
X165566666Y-91964667D01*
X165566666Y-92131333D01*
X165533333Y-92198000D01*
X165500000Y-92231333D01*
X165433333Y-92264667D01*
X165266666Y-92264667D01*
X165200000Y-92231333D01*
X165166666Y-92198000D01*
X158173000Y-80514000D02*
X158139666Y-80547333D01*
X158039666Y-80580667D01*
X157973000Y-80580667D01*
X157873000Y-80547333D01*
X157806333Y-80480667D01*
X157773000Y-80414000D01*
X157739666Y-80280667D01*
X157739666Y-80180667D01*
X157773000Y-80047333D01*
X157806333Y-79980667D01*
X157873000Y-79914000D01*
X157973000Y-79880667D01*
X158039666Y-79880667D01*
X158139666Y-79914000D01*
X158173000Y-79947333D01*
X158839666Y-80580667D02*
X158439666Y-80580667D01*
X158639666Y-80580667D02*
X158639666Y-79880667D01*
X158573000Y-79980667D01*
X158506333Y-80047333D01*
X158439666Y-80080667D01*
X159473000Y-79880667D02*
X159139667Y-79880667D01*
X159106333Y-80214000D01*
X159139667Y-80180667D01*
X159206333Y-80147333D01*
X159373000Y-80147333D01*
X159439667Y-80180667D01*
X159473000Y-80214000D01*
X159506333Y-80280667D01*
X159506333Y-80447333D01*
X159473000Y-80514000D01*
X159439667Y-80547333D01*
X159373000Y-80580667D01*
X159206333Y-80580667D01*
X159139667Y-80547333D01*
X159106333Y-80514000D01*
X139504000Y-80514000D02*
X139470666Y-80547333D01*
X139370666Y-80580667D01*
X139304000Y-80580667D01*
X139204000Y-80547333D01*
X139137333Y-80480667D01*
X139104000Y-80414000D01*
X139070666Y-80280667D01*
X139070666Y-80180667D01*
X139104000Y-80047333D01*
X139137333Y-79980667D01*
X139204000Y-79914000D01*
X139304000Y-79880667D01*
X139370666Y-79880667D01*
X139470666Y-79914000D01*
X139504000Y-79947333D01*
X140170666Y-80580667D02*
X139770666Y-80580667D01*
X139970666Y-80580667D02*
X139970666Y-79880667D01*
X139904000Y-79980667D01*
X139837333Y-80047333D01*
X139770666Y-80080667D01*
X140770667Y-79880667D02*
X140637333Y-79880667D01*
X140570667Y-79914000D01*
X140537333Y-79947333D01*
X140470667Y-80047333D01*
X140437333Y-80180667D01*
X140437333Y-80447333D01*
X140470667Y-80514000D01*
X140504000Y-80547333D01*
X140570667Y-80580667D01*
X140704000Y-80580667D01*
X140770667Y-80547333D01*
X140804000Y-80514000D01*
X140837333Y-80447333D01*
X140837333Y-80280667D01*
X140804000Y-80214000D01*
X140770667Y-80180667D01*
X140704000Y-80147333D01*
X140570667Y-80147333D01*
X140504000Y-80180667D01*
X140470667Y-80214000D01*
X140437333Y-80280667D01*
D12*
X136350477Y-73874381D02*
X136350477Y-74588667D01*
X136302857Y-74731524D01*
X136207619Y-74826762D01*
X136064762Y-74874381D01*
X135969524Y-74874381D01*
X137350477Y-74874381D02*
X136779048Y-74874381D01*
X137064762Y-74874381D02*
X137064762Y-73874381D01*
X136969524Y-74017238D01*
X136874286Y-74112476D01*
X136779048Y-74160095D01*
X138207620Y-74207714D02*
X138207620Y-74874381D01*
X137969524Y-73826762D02*
X137731429Y-74541048D01*
X138350477Y-74541048D01*
M02*
