M48
;DRILL file {KiCad 4.0.6+dfsg1-1} date Thu Jun 21 08:51:27 2018
;FORMAT={-:-/ absolute / metric / decimal}
FMAT,2
METRIC,TZ
T1C0.300
T2C0.400
T3C0.500
T4C1.000
T5C1.097
T6C3.200
%
G90
G05
M71
T1
X138.438Y-104.136
X138.438Y-105.136
X138.938Y-104.636
X139.438Y-104.136
X139.438Y-105.136
X153.986Y-99.268
X153.986Y-99.868
X154.686Y-99.568
X155.386Y-99.268
X155.386Y-99.868
T2
X140.716Y-106.172
X140.97Y-102.87
X142.24Y-93.98
X144.78Y-106.934
X147.32Y-104.394
X154.94Y-104.648
X161.544Y-100.33
T3
X129.68Y-93.98
X129.68Y-111.76
X130.383Y-92.283
X130.383Y-95.677
X130.383Y-110.063
X130.383Y-113.457
X132.08Y-91.58
X132.08Y-96.38
X132.08Y-109.36
X132.08Y-114.16
X133.777Y-92.283
X133.777Y-95.677
X133.777Y-110.063
X133.777Y-113.457
X134.48Y-93.98
X134.48Y-111.76
X162.7Y-93.98
X162.7Y-111.76
X163.403Y-92.283
X163.403Y-95.677
X163.403Y-110.063
X163.403Y-113.457
X165.1Y-91.58
X165.1Y-96.38
X165.1Y-109.36
X165.1Y-114.16
X166.797Y-92.283
X166.797Y-95.677
X166.797Y-110.063
X166.797Y-113.457
X167.5Y-93.98
X167.5Y-111.76
T4
X142.24Y-114.3
X144.78Y-114.3
X147.32Y-114.3
X149.86Y-114.3
X152.4Y-114.3
X154.94Y-114.3
T5
X139.7Y-92.075
X142.24Y-92.075
X147.32Y-92.075
X149.86Y-92.075
X154.94Y-92.075
X157.48Y-92.075
T6
X132.08Y-93.98
X132.08Y-111.76
X165.1Y-93.98
X165.1Y-111.76
T0
M30
