%TF.GenerationSoftware,KiCad,Pcbnew,4.0.6+dfsg1-1*%
%TF.CreationDate,2018-06-21T08:51:40+02:00*%
%TF.ProjectId,energy_harvesting_module,656E657267795F68617276657374696E,rev?*%
%TF.FileFunction,Soldermask,Bot*%
%FSLAX46Y46*%
G04 Gerber Fmt 4.6, Leading zero omitted, Abs format (unit mm)*
G04 Created by KiCad (PCBNEW 4.0.6+dfsg1-1) date Thu Jun 21 08:51:40 2018*
%MOMM*%
%LPD*%
G01*
G04 APERTURE LIST*
%ADD10C,0.100000*%
%ADD11C,0.150000*%
%ADD12C,6.400000*%
%ADD13C,0.600000*%
%ADD14O,1.998980X1.998980*%
%ADD15R,1.998980X1.998980*%
%ADD16C,0.900000*%
%ADD17R,1.700000X1.700000*%
%ADD18O,1.700000X1.700000*%
%ADD19R,1.800000X1.800000*%
%ADD20R,2.000000X1.200000*%
%ADD21C,0.400000*%
G04 APERTURE END LIST*
D10*
D11*
X127000000Y-111760000D02*
X127000000Y-93980000D01*
X170180000Y-99060000D02*
X170180000Y-93980000D01*
X168910000Y-100330000D02*
X170180000Y-99060000D01*
X168910000Y-105410000D02*
X168910000Y-100330000D01*
X170180000Y-106680000D02*
X168910000Y-105410000D01*
X170180000Y-111760000D02*
X170180000Y-106680000D01*
X132080000Y-88900000D02*
X165100000Y-88900000D01*
X165100000Y-116840000D02*
X132080000Y-116840000D01*
X165100000Y-116840000D02*
G75*
G03X170180000Y-111760000I0J5080000D01*
G01*
X127000000Y-111760000D02*
G75*
G03X132080000Y-116840000I5080000J0D01*
G01*
X170180000Y-93980000D02*
G75*
G03X165100000Y-88900000I-5080000J0D01*
G01*
X132080000Y-88900000D02*
G75*
G03X127000000Y-93980000I0J-5080000D01*
G01*
D12*
X165100000Y-111760000D03*
D13*
X167500000Y-111760000D03*
X166797056Y-113457056D03*
X165100000Y-114160000D03*
X163402944Y-113457056D03*
X162700000Y-111760000D03*
X163402944Y-110062944D03*
X165100000Y-109360000D03*
X166797056Y-110062944D03*
D12*
X132080000Y-111760000D03*
D13*
X134480000Y-111760000D03*
X133777056Y-113457056D03*
X132080000Y-114160000D03*
X130382944Y-113457056D03*
X129680000Y-111760000D03*
X130382944Y-110062944D03*
X132080000Y-109360000D03*
X133777056Y-110062944D03*
D12*
X132080000Y-93980000D03*
D13*
X134480000Y-93980000D03*
X133777056Y-95677056D03*
X132080000Y-96380000D03*
X130382944Y-95677056D03*
X129680000Y-93980000D03*
X130382944Y-92282944D03*
X132080000Y-91580000D03*
X133777056Y-92282944D03*
D14*
X139700000Y-92075000D03*
D15*
X142240000Y-92075000D03*
D14*
X147320000Y-92075000D03*
D15*
X149860000Y-92075000D03*
D16*
X166370000Y-106270000D03*
X166370000Y-99470000D03*
D14*
X154940000Y-92075000D03*
D15*
X157480000Y-92075000D03*
D12*
X165100000Y-93980000D03*
D13*
X167500000Y-93980000D03*
X166797056Y-95677056D03*
X165100000Y-96380000D03*
X163402944Y-95677056D03*
X162700000Y-93980000D03*
X163402944Y-92282944D03*
X165100000Y-91580000D03*
X166797056Y-92282944D03*
D17*
X142240000Y-114300000D03*
D18*
X144780000Y-114300000D03*
X147320000Y-114300000D03*
X149860000Y-114300000D03*
X152400000Y-114300000D03*
X154940000Y-114300000D03*
D19*
X138938000Y-104636000D03*
D20*
X154686000Y-99568000D03*
D21*
X155386000Y-99268000D03*
X153986000Y-99268000D03*
X153986000Y-99868000D03*
X155386000Y-99868000D03*
M02*
