%TF.GenerationSoftware,KiCad,Pcbnew,4.0.6+dfsg1-1*%
%TF.CreationDate,2018-06-21T08:51:40+02:00*%
%TF.ProjectId,energy_harvesting_module,656E657267795F68617276657374696E,rev?*%
%TF.FileFunction,Soldermask,Top*%
%FSLAX46Y46*%
G04 Gerber Fmt 4.6, Leading zero omitted, Abs format (unit mm)*
G04 Created by KiCad (PCBNEW 4.0.6+dfsg1-1) date Thu Jun 21 08:51:40 2018*
%MOMM*%
%LPD*%
G01*
G04 APERTURE LIST*
%ADD10C,0.100000*%
%ADD11C,0.150000*%
%ADD12C,6.400000*%
%ADD13C,0.600000*%
%ADD14R,1.000000X1.250000*%
%ADD15R,1.250000X1.000000*%
%ADD16O,1.998980X1.998980*%
%ADD17R,1.998980X1.998980*%
%ADD18R,1.300000X0.700000*%
%ADD19R,0.700000X1.300000*%
%ADD20R,0.900000X0.800000*%
%ADD21R,2.500000X1.250000*%
%ADD22C,0.900000*%
%ADD23R,1.700000X1.700000*%
%ADD24O,1.700000X1.700000*%
%ADD25O,0.750000X0.300000*%
%ADD26O,0.300000X0.750000*%
%ADD27R,1.800000X1.800000*%
%ADD28R,2.000000X1.200000*%
%ADD29O,0.280000X0.940000*%
%ADD30C,0.400000*%
%ADD31R,1.400000X3.600000*%
%ADD32R,0.850000X1.200000*%
G04 APERTURE END LIST*
D10*
D11*
X127000000Y-111760000D02*
X127000000Y-93980000D01*
X170180000Y-99060000D02*
X170180000Y-93980000D01*
X168910000Y-100330000D02*
X170180000Y-99060000D01*
X168910000Y-105410000D02*
X168910000Y-100330000D01*
X170180000Y-106680000D02*
X168910000Y-105410000D01*
X170180000Y-111760000D02*
X170180000Y-106680000D01*
X132080000Y-88900000D02*
X165100000Y-88900000D01*
X165100000Y-116840000D02*
X132080000Y-116840000D01*
X165100000Y-116840000D02*
G75*
G03X170180000Y-111760000I0J5080000D01*
G01*
X127000000Y-111760000D02*
G75*
G03X132080000Y-116840000I5080000J0D01*
G01*
X170180000Y-93980000D02*
G75*
G03X165100000Y-88900000I-5080000J0D01*
G01*
X132080000Y-88900000D02*
G75*
G03X127000000Y-93980000I0J-5080000D01*
G01*
D12*
X165100000Y-111760000D03*
D13*
X167500000Y-111760000D03*
X166797056Y-113457056D03*
X165100000Y-114160000D03*
X163402944Y-113457056D03*
X162700000Y-111760000D03*
X163402944Y-110062944D03*
X165100000Y-109360000D03*
X166797056Y-110062944D03*
D12*
X132080000Y-111760000D03*
D13*
X134480000Y-111760000D03*
X133777056Y-113457056D03*
X132080000Y-114160000D03*
X130382944Y-113457056D03*
X129680000Y-111760000D03*
X130382944Y-110062944D03*
X132080000Y-109360000D03*
X133777056Y-110062944D03*
D12*
X132080000Y-93980000D03*
D13*
X134480000Y-93980000D03*
X133777056Y-95677056D03*
X132080000Y-96380000D03*
X130382944Y-95677056D03*
X129680000Y-93980000D03*
X130382944Y-92282944D03*
X132080000Y-91580000D03*
X133777056Y-92282944D03*
D14*
X135858000Y-103124000D03*
X133858000Y-103124000D03*
D15*
X137160000Y-107188000D03*
X137160000Y-109188000D03*
D14*
X144510000Y-97663000D03*
X142510000Y-97663000D03*
X144510000Y-99568000D03*
X142510000Y-99568000D03*
X139208000Y-99568000D03*
X141208000Y-99568000D03*
X139192000Y-97663000D03*
X141192000Y-97663000D03*
D15*
X159258000Y-102092000D03*
X159258000Y-100092000D03*
X157226000Y-102092000D03*
X157226000Y-100092000D03*
D14*
X157242000Y-98298000D03*
X159242000Y-98298000D03*
X152368000Y-100584000D03*
X150368000Y-100584000D03*
X152384000Y-102616000D03*
X150384000Y-102616000D03*
D15*
X155448000Y-108442000D03*
X155448000Y-106442000D03*
X153416000Y-108442000D03*
X153416000Y-106442000D03*
D16*
X139700000Y-92075000D03*
D17*
X142240000Y-92075000D03*
D16*
X147320000Y-92075000D03*
D17*
X149860000Y-92075000D03*
D18*
X132334000Y-107122000D03*
X132334000Y-105222000D03*
D19*
X135824000Y-107188000D03*
X133924000Y-107188000D03*
X133924000Y-105156000D03*
X135824000Y-105156000D03*
X139070000Y-109982000D03*
X140970000Y-109982000D03*
X140970000Y-107950000D03*
X139070000Y-107950000D03*
X143698000Y-109982000D03*
X141798000Y-109982000D03*
X141798000Y-107950000D03*
X143698000Y-107950000D03*
X143698000Y-101854000D03*
X141798000Y-101854000D03*
X143698000Y-103886000D03*
X141798000Y-103886000D03*
X143698000Y-105918000D03*
X141798000Y-105918000D03*
D18*
X148590000Y-100518000D03*
X148590000Y-98618000D03*
D19*
X150434000Y-98552000D03*
X152334000Y-98552000D03*
D18*
X151384000Y-108392000D03*
X151384000Y-106492000D03*
D20*
X149590000Y-108392000D03*
X149590000Y-106492000D03*
X147590000Y-107442000D03*
D21*
X163620000Y-105370000D03*
X163620000Y-102870000D03*
X163620000Y-100370000D03*
D22*
X166370000Y-106270000D03*
X166370000Y-99470000D03*
D16*
X154940000Y-92075000D03*
D17*
X157480000Y-92075000D03*
D12*
X165100000Y-93980000D03*
D13*
X167500000Y-93980000D03*
X166797056Y-95677056D03*
X165100000Y-96380000D03*
X163402944Y-95677056D03*
X162700000Y-93980000D03*
X163402944Y-92282944D03*
X165100000Y-91580000D03*
X166797056Y-92282944D03*
D23*
X142240000Y-114300000D03*
D24*
X144780000Y-114300000D03*
X147320000Y-114300000D03*
X149860000Y-114300000D03*
X152400000Y-114300000D03*
X154940000Y-114300000D03*
D25*
X137463000Y-103886000D03*
X137463000Y-104386000D03*
X137463000Y-104886000D03*
X137463000Y-105386000D03*
D26*
X138188000Y-106111000D03*
X138688000Y-106111000D03*
X139188000Y-106111000D03*
X139688000Y-106111000D03*
D25*
X140413000Y-105386000D03*
X140413000Y-104886000D03*
X140413000Y-104386000D03*
X140413000Y-103886000D03*
D26*
X139688000Y-103161000D03*
X139188000Y-103161000D03*
X138688000Y-103161000D03*
X138188000Y-103161000D03*
D27*
X138938000Y-104636000D03*
D28*
X154686000Y-99568000D03*
D29*
X153686000Y-100888000D03*
X154186000Y-100888000D03*
X154686000Y-100888000D03*
X155186000Y-100888000D03*
X155686000Y-100888000D03*
X155686000Y-98248000D03*
X155186000Y-98248000D03*
X154686000Y-98248000D03*
X154186000Y-98248000D03*
X153686000Y-98248000D03*
D30*
X155386000Y-99268000D03*
X153986000Y-99268000D03*
X153986000Y-99868000D03*
X155386000Y-99868000D03*
D31*
X134014000Y-99822000D03*
X137414000Y-99822000D03*
D32*
X155461000Y-102743000D03*
X153911000Y-102743000D03*
M02*
